<mxfile host="65bd71144e">
    <diagram id="hgbhUTLTFhZFaSTA9MUK" name="Page-1">
        <mxGraphModel dx="1369" dy="790" grid="1" gridSize="10" guides="1" tooltips="1" connect="1" arrows="1" fold="1" page="1" pageScale="1" pageWidth="10000" pageHeight="10000" math="0" shadow="0">
            <root>
                <mxCell id="0"/>
                <mxCell id="1" parent="0"/>
                <mxCell id="10" style="edgeStyle=none;html=1;entryX=1;entryY=0.5;entryDx=0;entryDy=0;" parent="1" source="3" target="9" edge="1">
                    <mxGeometry relative="1" as="geometry"/>
                </mxCell>
                <mxCell id="3" value="Galaxy" style="rounded=1;whiteSpace=wrap;html=1;" parent="1" vertex="1">
                    <mxGeometry x="240" y="40" width="120" height="60" as="geometry"/>
                </mxCell>
                <mxCell id="12" style="edgeStyle=none;html=1;entryX=0;entryY=0.5;entryDx=0;entryDy=0;" parent="1" source="4" target="11" edge="1">
                    <mxGeometry relative="1" as="geometry"/>
                </mxCell>
                <mxCell id="20" style="edgeStyle=none;html=1;entryX=1;entryY=0.5;entryDx=0;entryDy=0;" parent="1" source="4" target="3" edge="1">
                    <mxGeometry relative="1" as="geometry"/>
                </mxCell>
                <mxCell id="4" value="Star" style="rounded=1;whiteSpace=wrap;html=1;" parent="1" vertex="1">
                    <mxGeometry x="960" y="40" width="120" height="60" as="geometry"/>
                </mxCell>
                <mxCell id="14" style="edgeStyle=none;html=1;entryX=1;entryY=0.5;entryDx=0;entryDy=0;" parent="1" source="5" target="13" edge="1">
                    <mxGeometry relative="1" as="geometry"/>
                </mxCell>
                <mxCell id="25" style="edgeStyle=none;html=1;entryX=0.5;entryY=1;entryDx=0;entryDy=0;" parent="1" source="5" target="6" edge="1">
                    <mxGeometry relative="1" as="geometry">
                        <Array as="points">
                            <mxPoint x="300" y="560"/>
                            <mxPoint x="1020" y="560"/>
                        </Array>
                    </mxGeometry>
                </mxCell>
                <mxCell id="5" value="Moon" style="rounded=1;whiteSpace=wrap;html=1;" parent="1" vertex="1">
                    <mxGeometry x="240" y="420" width="120" height="60" as="geometry"/>
                </mxCell>
                <mxCell id="16" style="edgeStyle=none;html=1;entryX=0;entryY=0.5;entryDx=0;entryDy=0;" parent="1" source="6" target="15" edge="1">
                    <mxGeometry relative="1" as="geometry"/>
                </mxCell>
                <mxCell id="44" style="edgeStyle=none;html=1;entryX=0.5;entryY=1;entryDx=0;entryDy=0;" parent="1" source="6" target="4" edge="1">
                    <mxGeometry relative="1" as="geometry">
                        <mxPoint x="1020" y="110" as="targetPoint"/>
                    </mxGeometry>
                </mxCell>
                <mxCell id="6" value="Planet" style="rounded=1;whiteSpace=wrap;html=1;" parent="1" vertex="1">
                    <mxGeometry x="960" y="420" width="120" height="60" as="geometry"/>
                </mxCell>
                <mxCell id="9" value="PK: galaxy_id&lt;br&gt;SERIAL" style="shape=parallelogram;perimeter=parallelogramPerimeter;whiteSpace=wrap;html=1;fixedSize=1;" parent="1" vertex="1">
                    <mxGeometry x="10" y="120" width="120" height="60" as="geometry"/>
                </mxCell>
                <mxCell id="11" value="PK: star_id&lt;br&gt;SERIAL" style="shape=parallelogram;perimeter=parallelogramPerimeter;whiteSpace=wrap;html=1;fixedSize=1;" parent="1" vertex="1">
                    <mxGeometry x="1180" y="90" width="120" height="60" as="geometry"/>
                </mxCell>
                <mxCell id="13" value="PK: moon_id&lt;br&gt;SERIAL" style="shape=parallelogram;perimeter=parallelogramPerimeter;whiteSpace=wrap;html=1;fixedSize=1;" parent="1" vertex="1">
                    <mxGeometry x="10" y="340" width="120" height="60" as="geometry"/>
                </mxCell>
                <mxCell id="15" value="PK: planet_id&lt;br&gt;SERIAL" style="shape=parallelogram;perimeter=parallelogramPerimeter;whiteSpace=wrap;html=1;fixedSize=1;" parent="1" vertex="1">
                    <mxGeometry x="1180" y="340" width="120" height="60" as="geometry"/>
                </mxCell>
                <mxCell id="18" value="_id (INT) NOT NULL UNIQUE&lt;br&gt;_name (VARCHAR) NOT NULL&lt;br&gt;age_in_million_of_year (INT)&lt;br&gt;distance_to_the_earth (INT)&lt;br&gt;is_spherical (BOOLEAN)&lt;br&gt;has_life (BOOLEAN)&lt;br&gt;weight (NUMERIC)" style="rounded=0;whiteSpace=wrap;html=1;" parent="1" vertex="1">
                    <mxGeometry x="560" y="120" width="200" height="240" as="geometry"/>
                </mxCell>
                <mxCell id="29" style="edgeStyle=none;html=1;entryX=0.5;entryY=1;entryDx=0;entryDy=0;" parent="1" source="19" target="5" edge="1">
                    <mxGeometry relative="1" as="geometry"/>
                </mxCell>
                <mxCell id="30" style="edgeStyle=none;html=1;" parent="1" source="19" edge="1">
                    <mxGeometry relative="1" as="geometry">
                        <mxPoint x="1020" y="480" as="targetPoint"/>
                    </mxGeometry>
                </mxCell>
                <mxCell id="19" value="Planet_Moon" style="rounded=1;whiteSpace=wrap;html=1;" parent="1" vertex="1">
                    <mxGeometry x="580" y="660" width="120" height="60" as="geometry"/>
                </mxCell>
                <mxCell id="21" value="FK: _id" style="text;html=1;strokeColor=none;fillColor=none;align=center;verticalAlign=middle;whiteSpace=wrap;rounded=0;" parent="1" vertex="1">
                    <mxGeometry x="620" y="30" width="60" height="30" as="geometry"/>
                </mxCell>
                <mxCell id="26" value="FK: _id" style="text;html=1;strokeColor=none;fillColor=none;align=center;verticalAlign=middle;whiteSpace=wrap;rounded=0;" parent="1" vertex="1">
                    <mxGeometry x="640" y="530" width="60" height="30" as="geometry"/>
                </mxCell>
                <mxCell id="27" value="FK: _id" style="text;html=1;strokeColor=none;fillColor=none;align=center;verticalAlign=middle;whiteSpace=wrap;rounded=0;" parent="1" vertex="1">
                    <mxGeometry x="1040" y="250" width="60" height="30" as="geometry"/>
                </mxCell>
            </root>
        </mxGraphModel>
    </diagram>
    <diagram id="9zFQDCavEDIj35OQ4y-J" name="Page-2">
        <mxGraphModel dx="1369" dy="790" grid="1" gridSize="10" guides="1" tooltips="1" connect="1" arrows="1" fold="1" page="1" pageScale="1" pageWidth="10000" pageHeight="10000" math="0" shadow="0">
            <root>
                <mxCell id="xz6mfQAjcecRewVyNSsJ-0"/>
                <mxCell id="xz6mfQAjcecRewVyNSsJ-1" parent="xz6mfQAjcecRewVyNSsJ-0"/>
                <mxCell id="WdNm_SoBrR3ATqORmXHF-1" value="" style="shape=table;html=1;whiteSpace=wrap;startSize=0;container=1;collapsible=0;childLayout=tableLayout;" parent="xz6mfQAjcecRewVyNSsJ-1" vertex="1">
                    <mxGeometry x="42" y="80" width="794" height="410" as="geometry"/>
                </mxCell>
                <mxCell id="WdNm_SoBrR3ATqORmXHF-2" value="" style="shape=partialRectangle;html=1;whiteSpace=wrap;collapsible=0;dropTarget=0;pointerEvents=0;fillColor=none;top=0;left=0;bottom=0;right=0;points=[[0,0.5],[1,0.5]];portConstraint=eastwest;" parent="WdNm_SoBrR3ATqORmXHF-1" vertex="1">
                    <mxGeometry width="794" height="40" as="geometry"/>
                </mxCell>
                <mxCell id="WdNm_SoBrR3ATqORmXHF-3" value="galaxy_id" style="shape=partialRectangle;html=1;whiteSpace=wrap;connectable=0;fillColor=none;top=0;left=0;bottom=0;right=0;overflow=hidden;pointerEvents=1;" parent="WdNm_SoBrR3ATqORmXHF-2" vertex="1">
                    <mxGeometry width="114" height="40" as="geometry">
                        <mxRectangle width="114" height="40" as="alternateBounds"/>
                    </mxGeometry>
                </mxCell>
                <mxCell id="WdNm_SoBrR3ATqORmXHF-4" value="galaxy_name" style="shape=partialRectangle;html=1;whiteSpace=wrap;connectable=0;fillColor=none;top=0;left=0;bottom=0;right=0;overflow=hidden;pointerEvents=1;" parent="WdNm_SoBrR3ATqORmXHF-2" vertex="1">
                    <mxGeometry x="114" width="111" height="40" as="geometry">
                        <mxRectangle width="111" height="40" as="alternateBounds"/>
                    </mxGeometry>
                </mxCell>
                <mxCell id="WdNm_SoBrR3ATqORmXHF-5" value="description" style="shape=partialRectangle;html=1;whiteSpace=wrap;connectable=0;fillColor=none;top=0;left=0;bottom=0;right=0;overflow=hidden;pointerEvents=1;" parent="WdNm_SoBrR3ATqORmXHF-2" vertex="1">
                    <mxGeometry x="225" width="135" height="40" as="geometry">
                        <mxRectangle width="135" height="40" as="alternateBounds"/>
                    </mxGeometry>
                </mxCell>
                <mxCell id="WdNm_SoBrR3ATqORmXHF-14" value="" style="shape=partialRectangle;html=1;whiteSpace=wrap;connectable=0;fillColor=none;top=0;left=0;bottom=0;right=0;overflow=hidden;pointerEvents=1;" parent="WdNm_SoBrR3ATqORmXHF-2" vertex="1">
                    <mxGeometry x="360" width="120" height="40" as="geometry">
                        <mxRectangle width="120" height="40" as="alternateBounds"/>
                    </mxGeometry>
                </mxCell>
                <mxCell id="WdNm_SoBrR3ATqORmXHF-17" value="" style="shape=partialRectangle;html=1;whiteSpace=wrap;connectable=0;fillColor=none;top=0;left=0;bottom=0;right=0;overflow=hidden;pointerEvents=1;" parent="WdNm_SoBrR3ATqORmXHF-2" vertex="1">
                    <mxGeometry x="480" width="108" height="40" as="geometry">
                        <mxRectangle width="108" height="40" as="alternateBounds"/>
                    </mxGeometry>
                </mxCell>
                <mxCell id="WdNm_SoBrR3ATqORmXHF-20" value="" style="shape=partialRectangle;html=1;whiteSpace=wrap;connectable=0;fillColor=none;top=0;left=0;bottom=0;right=0;overflow=hidden;pointerEvents=1;" parent="WdNm_SoBrR3ATqORmXHF-2" vertex="1">
                    <mxGeometry x="588" width="92" height="40" as="geometry">
                        <mxRectangle width="92" height="40" as="alternateBounds"/>
                    </mxGeometry>
                </mxCell>
                <mxCell id="ZO_y3p0wsw_hQGGc-QkM-0" value="" style="shape=partialRectangle;html=1;whiteSpace=wrap;connectable=0;fillColor=none;top=0;left=0;bottom=0;right=0;overflow=hidden;pointerEvents=1;" parent="WdNm_SoBrR3ATqORmXHF-2" vertex="1">
                    <mxGeometry x="680" width="114" height="40" as="geometry">
                        <mxRectangle width="114" height="40" as="alternateBounds"/>
                    </mxGeometry>
                </mxCell>
                <mxCell id="WdNm_SoBrR3ATqORmXHF-6" value="" style="shape=partialRectangle;html=1;whiteSpace=wrap;collapsible=0;dropTarget=0;pointerEvents=0;fillColor=none;top=0;left=0;bottom=0;right=0;points=[[0,0.5],[1,0.5]];portConstraint=eastwest;" parent="WdNm_SoBrR3ATqORmXHF-1" vertex="1">
                    <mxGeometry y="40" width="794" height="40" as="geometry"/>
                </mxCell>
                <mxCell id="WdNm_SoBrR3ATqORmXHF-7" value="01" style="shape=partialRectangle;html=1;whiteSpace=wrap;connectable=0;fillColor=none;top=0;left=0;bottom=0;right=0;overflow=hidden;pointerEvents=1;" parent="WdNm_SoBrR3ATqORmXHF-6" vertex="1">
                    <mxGeometry width="114" height="40" as="geometry">
                        <mxRectangle width="114" height="40" as="alternateBounds"/>
                    </mxGeometry>
                </mxCell>
                <mxCell id="WdNm_SoBrR3ATqORmXHF-8" value="Milky Way" style="shape=partialRectangle;html=1;whiteSpace=wrap;connectable=0;fillColor=none;top=0;left=0;bottom=0;right=0;overflow=hidden;pointerEvents=1;" parent="WdNm_SoBrR3ATqORmXHF-6" vertex="1">
                    <mxGeometry x="114" width="111" height="40" as="geometry">
                        <mxRectangle width="111" height="40" as="alternateBounds"/>
                    </mxGeometry>
                </mxCell>
                <mxCell id="WdNm_SoBrR3ATqORmXHF-9" value="This is my galaxy" style="shape=partialRectangle;html=1;whiteSpace=wrap;connectable=0;fillColor=none;top=0;left=0;bottom=0;right=0;overflow=hidden;pointerEvents=1;" parent="WdNm_SoBrR3ATqORmXHF-6" vertex="1">
                    <mxGeometry x="225" width="135" height="40" as="geometry">
                        <mxRectangle width="135" height="40" as="alternateBounds"/>
                    </mxGeometry>
                </mxCell>
                <mxCell id="WdNm_SoBrR3ATqORmXHF-15" value="1060" style="shape=partialRectangle;html=1;whiteSpace=wrap;connectable=0;fillColor=none;top=0;left=0;bottom=0;right=0;overflow=hidden;pointerEvents=1;" parent="WdNm_SoBrR3ATqORmXHF-6" vertex="1">
                    <mxGeometry x="360" width="120" height="40" as="geometry">
                        <mxRectangle width="120" height="40" as="alternateBounds"/>
                    </mxGeometry>
                </mxCell>
                <mxCell id="WdNm_SoBrR3ATqORmXHF-18" value="250" style="shape=partialRectangle;html=1;whiteSpace=wrap;connectable=0;fillColor=none;top=0;left=0;bottom=0;right=0;overflow=hidden;pointerEvents=1;" parent="WdNm_SoBrR3ATqORmXHF-6" vertex="1">
                    <mxGeometry x="480" width="108" height="40" as="geometry">
                        <mxRectangle width="108" height="40" as="alternateBounds"/>
                    </mxGeometry>
                </mxCell>
                <mxCell id="WdNm_SoBrR3ATqORmXHF-21" value="" style="shape=partialRectangle;html=1;whiteSpace=wrap;connectable=0;fillColor=none;top=0;left=0;bottom=0;right=0;overflow=hidden;pointerEvents=1;" parent="WdNm_SoBrR3ATqORmXHF-6" vertex="1">
                    <mxGeometry x="588" width="92" height="40" as="geometry">
                        <mxRectangle width="92" height="40" as="alternateBounds"/>
                    </mxGeometry>
                </mxCell>
                <mxCell id="ZO_y3p0wsw_hQGGc-QkM-1" value="" style="shape=partialRectangle;html=1;whiteSpace=wrap;connectable=0;fillColor=none;top=0;left=0;bottom=0;right=0;overflow=hidden;pointerEvents=1;" parent="WdNm_SoBrR3ATqORmXHF-6" vertex="1">
                    <mxGeometry x="680" width="114" height="40" as="geometry">
                        <mxRectangle width="114" height="40" as="alternateBounds"/>
                    </mxGeometry>
                </mxCell>
                <mxCell id="WdNm_SoBrR3ATqORmXHF-10" value="" style="shape=partialRectangle;html=1;whiteSpace=wrap;collapsible=0;dropTarget=0;pointerEvents=0;fillColor=none;top=0;left=0;bottom=0;right=0;points=[[0,0.5],[1,0.5]];portConstraint=eastwest;" parent="WdNm_SoBrR3ATqORmXHF-1" vertex="1">
                    <mxGeometry y="80" width="794" height="90" as="geometry"/>
                </mxCell>
                <mxCell id="WdNm_SoBrR3ATqORmXHF-11" value="02" style="shape=partialRectangle;html=1;whiteSpace=wrap;connectable=0;fillColor=none;top=0;left=0;bottom=0;right=0;overflow=hidden;pointerEvents=1;" parent="WdNm_SoBrR3ATqORmXHF-10" vertex="1">
                    <mxGeometry width="114" height="90" as="geometry">
                        <mxRectangle width="114" height="90" as="alternateBounds"/>
                    </mxGeometry>
                </mxCell>
                <mxCell id="WdNm_SoBrR3ATqORmXHF-12" value="Andromedae" style="shape=partialRectangle;html=1;whiteSpace=wrap;connectable=0;fillColor=none;top=0;left=0;bottom=0;right=0;overflow=hidden;pointerEvents=1;" parent="WdNm_SoBrR3ATqORmXHF-10" vertex="1">
                    <mxGeometry x="114" width="111" height="90" as="geometry">
                        <mxRectangle width="111" height="90" as="alternateBounds"/>
                    </mxGeometry>
                </mxCell>
                <mxCell id="WdNm_SoBrR3ATqORmXHF-13" value="Be named for Andromeda, daughter of Cassiopeia" style="shape=partialRectangle;html=1;whiteSpace=wrap;connectable=0;fillColor=none;top=0;left=0;bottom=0;right=0;overflow=hidden;pointerEvents=1;" parent="WdNm_SoBrR3ATqORmXHF-10" vertex="1">
                    <mxGeometry x="225" width="135" height="90" as="geometry">
                        <mxRectangle width="135" height="90" as="alternateBounds"/>
                    </mxGeometry>
                </mxCell>
                <mxCell id="WdNm_SoBrR3ATqORmXHF-16" value="722" style="shape=partialRectangle;html=1;whiteSpace=wrap;connectable=0;fillColor=none;top=0;left=0;bottom=0;right=0;overflow=hidden;pointerEvents=1;" parent="WdNm_SoBrR3ATqORmXHF-10" vertex="1">
                    <mxGeometry x="360" width="120" height="90" as="geometry">
                        <mxRectangle width="120" height="90" as="alternateBounds"/>
                    </mxGeometry>
                </mxCell>
                <mxCell id="WdNm_SoBrR3ATqORmXHF-19" value="1000" style="shape=partialRectangle;html=1;whiteSpace=wrap;connectable=0;fillColor=none;top=0;left=0;bottom=0;right=0;overflow=hidden;pointerEvents=1;" parent="WdNm_SoBrR3ATqORmXHF-10" vertex="1">
                    <mxGeometry x="480" width="108" height="90" as="geometry">
                        <mxRectangle width="108" height="90" as="alternateBounds"/>
                    </mxGeometry>
                </mxCell>
                <mxCell id="WdNm_SoBrR3ATqORmXHF-22" value="false" style="shape=partialRectangle;html=1;whiteSpace=wrap;connectable=0;fillColor=none;top=0;left=0;bottom=0;right=0;overflow=hidden;pointerEvents=1;" parent="WdNm_SoBrR3ATqORmXHF-10" vertex="1">
                    <mxGeometry x="588" width="92" height="90" as="geometry">
                        <mxRectangle width="92" height="90" as="alternateBounds"/>
                    </mxGeometry>
                </mxCell>
                <mxCell id="ZO_y3p0wsw_hQGGc-QkM-2" value="spiral" style="shape=partialRectangle;html=1;whiteSpace=wrap;connectable=0;fillColor=none;top=0;left=0;bottom=0;right=0;overflow=hidden;pointerEvents=1;" parent="WdNm_SoBrR3ATqORmXHF-10" vertex="1">
                    <mxGeometry x="680" width="114" height="90" as="geometry">
                        <mxRectangle width="114" height="90" as="alternateBounds"/>
                    </mxGeometry>
                </mxCell>
                <mxCell id="6MAAlo5V1QYEwlRGVBOy-0" style="shape=partialRectangle;html=1;whiteSpace=wrap;collapsible=0;dropTarget=0;pointerEvents=0;fillColor=none;top=0;left=0;bottom=0;right=0;points=[[0,0.5],[1,0.5]];portConstraint=eastwest;" parent="WdNm_SoBrR3ATqORmXHF-1" vertex="1">
                    <mxGeometry y="170" width="794" height="120" as="geometry"/>
                </mxCell>
                <mxCell id="6MAAlo5V1QYEwlRGVBOy-1" value="03" style="shape=partialRectangle;html=1;whiteSpace=wrap;connectable=0;fillColor=none;top=0;left=0;bottom=0;right=0;overflow=hidden;pointerEvents=1;" parent="6MAAlo5V1QYEwlRGVBOy-0" vertex="1">
                    <mxGeometry width="114" height="120" as="geometry">
                        <mxRectangle width="114" height="120" as="alternateBounds"/>
                    </mxGeometry>
                </mxCell>
                <mxCell id="6MAAlo5V1QYEwlRGVBOy-2" value="Messier 33" style="shape=partialRectangle;html=1;whiteSpace=wrap;connectable=0;fillColor=none;top=0;left=0;bottom=0;right=0;overflow=hidden;pointerEvents=1;" parent="6MAAlo5V1QYEwlRGVBOy-0" vertex="1">
                    <mxGeometry x="114" width="111" height="120" as="geometry">
                        <mxRectangle width="111" height="120" as="alternateBounds"/>
                    </mxGeometry>
                </mxCell>
                <mxCell id="6MAAlo5V1QYEwlRGVBOy-3" value="Be one of the most distant permanent objects that can be viewed with the naked eye" style="shape=partialRectangle;html=1;whiteSpace=wrap;connectable=0;fillColor=none;top=0;left=0;bottom=0;right=0;overflow=hidden;pointerEvents=1;" parent="6MAAlo5V1QYEwlRGVBOy-0" vertex="1">
                    <mxGeometry x="225" width="135" height="120" as="geometry">
                        <mxRectangle width="135" height="120" as="alternateBounds"/>
                    </mxGeometry>
                </mxCell>
                <mxCell id="6MAAlo5V1QYEwlRGVBOy-4" value="132" style="shape=partialRectangle;html=1;whiteSpace=wrap;connectable=0;fillColor=none;top=0;left=0;bottom=0;right=0;overflow=hidden;pointerEvents=1;" parent="6MAAlo5V1QYEwlRGVBOy-0" vertex="1">
                    <mxGeometry x="360" width="120" height="120" as="geometry">
                        <mxRectangle width="120" height="120" as="alternateBounds"/>
                    </mxGeometry>
                </mxCell>
                <mxCell id="6MAAlo5V1QYEwlRGVBOy-5" value="40" style="shape=partialRectangle;html=1;whiteSpace=wrap;connectable=0;fillColor=none;top=0;left=0;bottom=0;right=0;overflow=hidden;pointerEvents=1;" parent="6MAAlo5V1QYEwlRGVBOy-0" vertex="1">
                    <mxGeometry x="480" width="108" height="120" as="geometry">
                        <mxRectangle width="108" height="120" as="alternateBounds"/>
                    </mxGeometry>
                </mxCell>
                <mxCell id="6MAAlo5V1QYEwlRGVBOy-6" value="false" style="shape=partialRectangle;html=1;whiteSpace=wrap;connectable=0;fillColor=none;top=0;left=0;bottom=0;right=0;overflow=hidden;pointerEvents=1;" parent="6MAAlo5V1QYEwlRGVBOy-0" vertex="1">
                    <mxGeometry x="588" width="92" height="120" as="geometry">
                        <mxRectangle width="92" height="120" as="alternateBounds"/>
                    </mxGeometry>
                </mxCell>
                <mxCell id="6MAAlo5V1QYEwlRGVBOy-7" value="spiral" style="shape=partialRectangle;html=1;whiteSpace=wrap;connectable=0;fillColor=none;top=0;left=0;bottom=0;right=0;overflow=hidden;pointerEvents=1;" parent="6MAAlo5V1QYEwlRGVBOy-0" vertex="1">
                    <mxGeometry x="680" width="114" height="120" as="geometry">
                        <mxRectangle width="114" height="120" as="alternateBounds"/>
                    </mxGeometry>
                </mxCell>
                <mxCell id="6MAAlo5V1QYEwlRGVBOy-8" style="shape=partialRectangle;html=1;whiteSpace=wrap;collapsible=0;dropTarget=0;pointerEvents=0;fillColor=none;top=0;left=0;bottom=0;right=0;points=[[0,0.5],[1,0.5]];portConstraint=eastwest;" parent="WdNm_SoBrR3ATqORmXHF-1" vertex="1">
                    <mxGeometry y="290" width="794" height="40" as="geometry"/>
                </mxCell>
                <mxCell id="6MAAlo5V1QYEwlRGVBOy-9" value="04" style="shape=partialRectangle;html=1;whiteSpace=wrap;connectable=0;fillColor=none;top=0;left=0;bottom=0;right=0;overflow=hidden;pointerEvents=1;" parent="6MAAlo5V1QYEwlRGVBOy-8" vertex="1">
                    <mxGeometry width="114" height="40" as="geometry">
                        <mxRectangle width="114" height="40" as="alternateBounds"/>
                    </mxGeometry>
                </mxCell>
                <mxCell id="6MAAlo5V1QYEwlRGVBOy-10" value="Centaurus A" style="shape=partialRectangle;html=1;whiteSpace=wrap;connectable=0;fillColor=none;top=0;left=0;bottom=0;right=0;overflow=hidden;pointerEvents=1;" parent="6MAAlo5V1QYEwlRGVBOy-8" vertex="1">
                    <mxGeometry x="114" width="111" height="40" as="geometry">
                        <mxRectangle width="111" height="40" as="alternateBounds"/>
                    </mxGeometry>
                </mxCell>
                <mxCell id="6MAAlo5V1QYEwlRGVBOy-11" value="Be discovered in 1862" style="shape=partialRectangle;html=1;whiteSpace=wrap;connectable=0;fillColor=none;top=0;left=0;bottom=0;right=0;overflow=hidden;pointerEvents=1;" parent="6MAAlo5V1QYEwlRGVBOy-8" vertex="1">
                    <mxGeometry x="225" width="135" height="40" as="geometry">
                        <mxRectangle width="135" height="40" as="alternateBounds"/>
                    </mxGeometry>
                </mxCell>
                <mxCell id="6MAAlo5V1QYEwlRGVBOy-12" value="1060" style="shape=partialRectangle;html=1;whiteSpace=wrap;connectable=0;fillColor=none;top=0;left=0;bottom=0;right=0;overflow=hidden;pointerEvents=1;" parent="6MAAlo5V1QYEwlRGVBOy-8" vertex="1">
                    <mxGeometry x="360" width="120" height="40" as="geometry">
                        <mxRectangle width="120" height="40" as="alternateBounds"/>
                    </mxGeometry>
                </mxCell>
                <mxCell id="6MAAlo5V1QYEwlRGVBOy-13" value="NULL" style="shape=partialRectangle;html=1;whiteSpace=wrap;connectable=0;fillColor=none;top=0;left=0;bottom=0;right=0;overflow=hidden;pointerEvents=1;" parent="6MAAlo5V1QYEwlRGVBOy-8" vertex="1">
                    <mxGeometry x="480" width="108" height="40" as="geometry">
                        <mxRectangle width="108" height="40" as="alternateBounds"/>
                    </mxGeometry>
                </mxCell>
                <mxCell id="6MAAlo5V1QYEwlRGVBOy-14" value="true" style="shape=partialRectangle;html=1;whiteSpace=wrap;connectable=0;fillColor=none;top=0;left=0;bottom=0;right=0;overflow=hidden;pointerEvents=1;" parent="6MAAlo5V1QYEwlRGVBOy-8" vertex="1">
                    <mxGeometry x="588" width="92" height="40" as="geometry">
                        <mxRectangle width="92" height="40" as="alternateBounds"/>
                    </mxGeometry>
                </mxCell>
                <mxCell id="6MAAlo5V1QYEwlRGVBOy-15" value="elip" style="shape=partialRectangle;html=1;whiteSpace=wrap;connectable=0;fillColor=none;top=0;left=0;bottom=0;right=0;overflow=hidden;pointerEvents=1;" parent="6MAAlo5V1QYEwlRGVBOy-8" vertex="1">
                    <mxGeometry x="680" width="114" height="40" as="geometry">
                        <mxRectangle width="114" height="40" as="alternateBounds"/>
                    </mxGeometry>
                </mxCell>
                <mxCell id="yfHe9s_iz9puLt9gPULb-0" style="shape=partialRectangle;html=1;whiteSpace=wrap;collapsible=0;dropTarget=0;pointerEvents=0;fillColor=none;top=0;left=0;bottom=0;right=0;points=[[0,0.5],[1,0.5]];portConstraint=eastwest;" parent="WdNm_SoBrR3ATqORmXHF-1" vertex="1">
                    <mxGeometry y="330" width="794" height="40" as="geometry"/>
                </mxCell>
                <mxCell id="yfHe9s_iz9puLt9gPULb-1" value="05" style="shape=partialRectangle;html=1;whiteSpace=wrap;connectable=0;fillColor=none;top=0;left=0;bottom=0;right=0;overflow=hidden;pointerEvents=1;" parent="yfHe9s_iz9puLt9gPULb-0" vertex="1">
                    <mxGeometry width="114" height="40" as="geometry">
                        <mxRectangle width="114" height="40" as="alternateBounds"/>
                    </mxGeometry>
                </mxCell>
                <mxCell id="yfHe9s_iz9puLt9gPULb-2" value="Messier 87" style="shape=partialRectangle;html=1;whiteSpace=wrap;connectable=0;fillColor=none;top=0;left=0;bottom=0;right=0;overflow=hidden;pointerEvents=1;" parent="yfHe9s_iz9puLt9gPULb-0" vertex="1">
                    <mxGeometry x="114" width="111" height="40" as="geometry">
                        <mxRectangle width="111" height="40" as="alternateBounds"/>
                    </mxGeometry>
                </mxCell>
                <mxCell id="yfHe9s_iz9puLt9gPULb-3" value="Be supergiant eliptical galaxy" style="shape=partialRectangle;html=1;whiteSpace=wrap;connectable=0;fillColor=none;top=0;left=0;bottom=0;right=0;overflow=hidden;pointerEvents=1;" parent="yfHe9s_iz9puLt9gPULb-0" vertex="1">
                    <mxGeometry x="225" width="135" height="40" as="geometry">
                        <mxRectangle width="135" height="40" as="alternateBounds"/>
                    </mxGeometry>
                </mxCell>
                <mxCell id="yfHe9s_iz9puLt9gPULb-4" value="1294" style="shape=partialRectangle;html=1;whiteSpace=wrap;connectable=0;fillColor=none;top=0;left=0;bottom=0;right=0;overflow=hidden;pointerEvents=1;" parent="yfHe9s_iz9puLt9gPULb-0" vertex="1">
                    <mxGeometry x="360" width="120" height="40" as="geometry">
                        <mxRectangle width="120" height="40" as="alternateBounds"/>
                    </mxGeometry>
                </mxCell>
                <mxCell id="yfHe9s_iz9puLt9gPULb-5" value="1000" style="shape=partialRectangle;html=1;whiteSpace=wrap;connectable=0;fillColor=none;top=0;left=0;bottom=0;right=0;overflow=hidden;pointerEvents=1;" parent="yfHe9s_iz9puLt9gPULb-0" vertex="1">
                    <mxGeometry x="480" width="108" height="40" as="geometry">
                        <mxRectangle width="108" height="40" as="alternateBounds"/>
                    </mxGeometry>
                </mxCell>
                <mxCell id="yfHe9s_iz9puLt9gPULb-6" value="true" style="shape=partialRectangle;html=1;whiteSpace=wrap;connectable=0;fillColor=none;top=0;left=0;bottom=0;right=0;overflow=hidden;pointerEvents=1;" parent="yfHe9s_iz9puLt9gPULb-0" vertex="1">
                    <mxGeometry x="588" width="92" height="40" as="geometry">
                        <mxRectangle width="92" height="40" as="alternateBounds"/>
                    </mxGeometry>
                </mxCell>
                <mxCell id="yfHe9s_iz9puLt9gPULb-7" value="elip" style="shape=partialRectangle;html=1;whiteSpace=wrap;connectable=0;fillColor=none;top=0;left=0;bottom=0;right=0;overflow=hidden;pointerEvents=1;" parent="yfHe9s_iz9puLt9gPULb-0" vertex="1">
                    <mxGeometry x="680" width="114" height="40" as="geometry">
                        <mxRectangle width="114" height="40" as="alternateBounds"/>
                    </mxGeometry>
                </mxCell>
                <mxCell id="dkkRA6gl5aH644RYRpz2-0" style="shape=partialRectangle;html=1;whiteSpace=wrap;collapsible=0;dropTarget=0;pointerEvents=0;fillColor=none;top=0;left=0;bottom=0;right=0;points=[[0,0.5],[1,0.5]];portConstraint=eastwest;" parent="WdNm_SoBrR3ATqORmXHF-1" vertex="1">
                    <mxGeometry y="370" width="794" height="40" as="geometry"/>
                </mxCell>
                <mxCell id="dkkRA6gl5aH644RYRpz2-1" value="06" style="shape=partialRectangle;html=1;whiteSpace=wrap;connectable=0;fillColor=none;top=0;left=0;bottom=0;right=0;overflow=hidden;pointerEvents=1;" parent="dkkRA6gl5aH644RYRpz2-0" vertex="1">
                    <mxGeometry width="114" height="40" as="geometry">
                        <mxRectangle width="114" height="40" as="alternateBounds"/>
                    </mxGeometry>
                </mxCell>
                <mxCell id="dkkRA6gl5aH644RYRpz2-2" value="UDFj-39546284" style="shape=partialRectangle;html=1;whiteSpace=wrap;connectable=0;fillColor=none;top=0;left=0;bottom=0;right=0;overflow=hidden;pointerEvents=1;" parent="dkkRA6gl5aH644RYRpz2-0" vertex="1">
                    <mxGeometry x="114" width="111" height="40" as="geometry">
                        <mxRectangle width="111" height="40" as="alternateBounds"/>
                    </mxGeometry>
                </mxCell>
                <mxCell id="dkkRA6gl5aH644RYRpz2-3" value="be the farest from my galaxy" style="shape=partialRectangle;html=1;whiteSpace=wrap;connectable=0;fillColor=none;top=0;left=0;bottom=0;right=0;overflow=hidden;pointerEvents=1;" parent="dkkRA6gl5aH644RYRpz2-0" vertex="1">
                    <mxGeometry x="225" width="135" height="40" as="geometry">
                        <mxRectangle width="135" height="40" as="alternateBounds"/>
                    </mxGeometry>
                </mxCell>
                <mxCell id="dkkRA6gl5aH644RYRpz2-4" value="398" style="shape=partialRectangle;html=1;whiteSpace=wrap;connectable=0;fillColor=none;top=0;left=0;bottom=0;right=0;overflow=hidden;pointerEvents=1;" parent="dkkRA6gl5aH644RYRpz2-0" vertex="1">
                    <mxGeometry x="360" width="120" height="40" as="geometry">
                        <mxRectangle width="120" height="40" as="alternateBounds"/>
                    </mxGeometry>
                </mxCell>
                <mxCell id="dkkRA6gl5aH644RYRpz2-5" value="NULL" style="shape=partialRectangle;html=1;whiteSpace=wrap;connectable=0;fillColor=none;top=0;left=0;bottom=0;right=0;overflow=hidden;pointerEvents=1;" parent="dkkRA6gl5aH644RYRpz2-0" vertex="1">
                    <mxGeometry x="480" width="108" height="40" as="geometry">
                        <mxRectangle width="108" height="40" as="alternateBounds"/>
                    </mxGeometry>
                </mxCell>
                <mxCell id="dkkRA6gl5aH644RYRpz2-6" value="false" style="shape=partialRectangle;html=1;whiteSpace=wrap;connectable=0;fillColor=none;top=0;left=0;bottom=0;right=0;overflow=hidden;pointerEvents=1;" parent="dkkRA6gl5aH644RYRpz2-0" vertex="1">
                    <mxGeometry x="588" width="92" height="40" as="geometry">
                        <mxRectangle width="92" height="40" as="alternateBounds"/>
                    </mxGeometry>
                </mxCell>
                <mxCell id="dkkRA6gl5aH644RYRpz2-7" value="spiral" style="shape=partialRectangle;html=1;whiteSpace=wrap;connectable=0;fillColor=none;top=0;left=0;bottom=0;right=0;overflow=hidden;pointerEvents=1;" parent="dkkRA6gl5aH644RYRpz2-0" vertex="1">
                    <mxGeometry x="680" width="114" height="40" as="geometry">
                        <mxRectangle width="114" height="40" as="alternateBounds"/>
                    </mxGeometry>
                </mxCell>
                <mxCell id="8WP3CeTmKxiNtibDukfU-14" value="billion_of_star" style="shape=partialRectangle;html=1;whiteSpace=wrap;connectable=0;fillColor=none;top=0;left=0;bottom=0;right=0;overflow=hidden;pointerEvents=1;" parent="xz6mfQAjcecRewVyNSsJ-1" vertex="1">
                    <mxGeometry x="510" y="80" width="130" height="40" as="geometry">
                        <mxRectangle width="120" height="40" as="alternateBounds"/>
                    </mxGeometry>
                </mxCell>
                <mxCell id="8WP3CeTmKxiNtibDukfU-15" value="deg2" style="shape=partialRectangle;html=1;whiteSpace=wrap;connectable=0;fillColor=none;top=0;left=0;bottom=0;right=0;overflow=hidden;pointerEvents=1;" parent="xz6mfQAjcecRewVyNSsJ-1" vertex="1">
                    <mxGeometry x="400" y="80" width="120" height="40" as="geometry">
                        <mxRectangle width="135" height="40" as="alternateBounds"/>
                    </mxGeometry>
                </mxCell>
                <mxCell id="wJmIP4DEAv2ZBN8dwejJ-0" value="&lt;span style=&quot;color: rgb(240 , 240 , 240) ; font-family: &amp;#34;helvetica&amp;#34; ; font-size: 12px ; font-style: normal ; font-weight: 400 ; letter-spacing: normal ; text-align: center ; text-indent: 0px ; text-transform: none ; word-spacing: 0px ; background-color: rgb(42 , 42 , 42) ; display: inline ; float: none&quot;&gt;is_spherical&lt;/span&gt;&lt;br&gt;" style="shape=partialRectangle;html=1;whiteSpace=wrap;connectable=0;fillColor=none;top=0;left=0;bottom=0;right=0;overflow=hidden;pointerEvents=1;" parent="xz6mfQAjcecRewVyNSsJ-1" vertex="1">
                    <mxGeometry x="630" y="80" width="90" height="40" as="geometry">
                        <mxRectangle width="114" height="40" as="alternateBounds"/>
                    </mxGeometry>
                </mxCell>
                <mxCell id="wJmIP4DEAv2ZBN8dwejJ-1" value="false" style="shape=partialRectangle;html=1;whiteSpace=wrap;connectable=0;fillColor=none;top=0;left=0;bottom=0;right=0;overflow=hidden;pointerEvents=1;" parent="xz6mfQAjcecRewVyNSsJ-1" vertex="1">
                    <mxGeometry x="630" y="120" width="90" height="40" as="geometry">
                        <mxRectangle width="114" height="40" as="alternateBounds"/>
                    </mxGeometry>
                </mxCell>
                <mxCell id="wJmIP4DEAv2ZBN8dwejJ-2" value="galaxy_type" style="shape=partialRectangle;html=1;whiteSpace=wrap;connectable=0;fillColor=none;top=0;left=0;bottom=0;right=0;overflow=hidden;pointerEvents=1;" parent="xz6mfQAjcecRewVyNSsJ-1" vertex="1">
                    <mxGeometry x="720" y="80" width="114" height="40" as="geometry">
                        <mxRectangle width="114" height="40" as="alternateBounds"/>
                    </mxGeometry>
                </mxCell>
                <mxCell id="wJmIP4DEAv2ZBN8dwejJ-4" value="&lt;span&gt;spiral&lt;/span&gt;" style="shape=partialRectangle;html=1;whiteSpace=wrap;connectable=0;fillColor=none;top=0;left=0;bottom=0;right=0;overflow=hidden;pointerEvents=1;" parent="xz6mfQAjcecRewVyNSsJ-1" vertex="1">
                    <mxGeometry x="720" y="120" width="114" height="40" as="geometry">
                        <mxRectangle width="114" height="40" as="alternateBounds"/>
                    </mxGeometry>
                </mxCell>
            </root>
        </mxGraphModel>
    </diagram>
    <diagram id="vp5nB4cpkvv5Zp3VsgSa" name="Page-3">
        <mxGraphModel dx="1369" dy="790" grid="1" gridSize="10" guides="1" tooltips="1" connect="1" arrows="1" fold="1" page="1" pageScale="1" pageWidth="10000" pageHeight="10000" math="0" shadow="0">
            <root>
                <mxCell id="lt8XdzJimtKxrRZquZDk-0"/>
                <mxCell id="lt8XdzJimtKxrRZquZDk-1" parent="lt8XdzJimtKxrRZquZDk-0"/>
                <mxCell id="kxmT0UqZPG7wKcjQKvgn-0" value="" style="shape=table;html=1;whiteSpace=wrap;startSize=0;container=1;collapsible=0;childLayout=tableLayout;" parent="lt8XdzJimtKxrRZquZDk-1" vertex="1">
                    <mxGeometry x="42" y="80" width="680" height="280" as="geometry"/>
                </mxCell>
                <mxCell id="kxmT0UqZPG7wKcjQKvgn-1" value="" style="shape=partialRectangle;html=1;whiteSpace=wrap;collapsible=0;dropTarget=0;pointerEvents=0;fillColor=none;top=0;left=0;bottom=0;right=0;points=[[0,0.5],[1,0.5]];portConstraint=eastwest;" parent="kxmT0UqZPG7wKcjQKvgn-0" vertex="1">
                    <mxGeometry width="680" height="40" as="geometry"/>
                </mxCell>
                <mxCell id="kxmT0UqZPG7wKcjQKvgn-2" value="star_id" style="shape=partialRectangle;html=1;whiteSpace=wrap;connectable=0;fillColor=none;top=0;left=0;bottom=0;right=0;overflow=hidden;pointerEvents=1;" parent="kxmT0UqZPG7wKcjQKvgn-1" vertex="1">
                    <mxGeometry width="114" height="40" as="geometry">
                        <mxRectangle width="114" height="40" as="alternateBounds"/>
                    </mxGeometry>
                </mxCell>
                <mxCell id="kxmT0UqZPG7wKcjQKvgn-3" value="star_name" style="shape=partialRectangle;html=1;whiteSpace=wrap;connectable=0;fillColor=none;top=0;left=0;bottom=0;right=0;overflow=hidden;pointerEvents=1;" parent="kxmT0UqZPG7wKcjQKvgn-1" vertex="1">
                    <mxGeometry x="114" width="111" height="40" as="geometry">
                        <mxRectangle width="111" height="40" as="alternateBounds"/>
                    </mxGeometry>
                </mxCell>
                <mxCell id="kxmT0UqZPG7wKcjQKvgn-4" value="description" style="shape=partialRectangle;html=1;whiteSpace=wrap;connectable=0;fillColor=none;top=0;left=0;bottom=0;right=0;overflow=hidden;pointerEvents=1;" parent="kxmT0UqZPG7wKcjQKvgn-1" vertex="1">
                    <mxGeometry x="225" width="135" height="40" as="geometry">
                        <mxRectangle width="135" height="40" as="alternateBounds"/>
                    </mxGeometry>
                </mxCell>
                <mxCell id="kxmT0UqZPG7wKcjQKvgn-5" value="distance_ly" style="shape=partialRectangle;html=1;whiteSpace=wrap;connectable=0;fillColor=none;top=0;left=0;bottom=0;right=0;overflow=hidden;pointerEvents=1;" parent="kxmT0UqZPG7wKcjQKvgn-1" vertex="1">
                    <mxGeometry x="360" width="120" height="40" as="geometry">
                        <mxRectangle width="120" height="40" as="alternateBounds"/>
                    </mxGeometry>
                </mxCell>
                <mxCell id="kxmT0UqZPG7wKcjQKvgn-6" value="weight_m0" style="shape=partialRectangle;html=1;whiteSpace=wrap;connectable=0;fillColor=none;top=0;left=0;bottom=0;right=0;overflow=hidden;pointerEvents=1;" parent="kxmT0UqZPG7wKcjQKvgn-1" vertex="1">
                    <mxGeometry x="480" width="108" height="40" as="geometry">
                        <mxRectangle width="108" height="40" as="alternateBounds"/>
                    </mxGeometry>
                </mxCell>
                <mxCell id="kxmT0UqZPG7wKcjQKvgn-7" value="galaxy_id" style="shape=partialRectangle;html=1;whiteSpace=wrap;connectable=0;fillColor=none;top=0;left=0;bottom=0;right=0;overflow=hidden;pointerEvents=1;" parent="kxmT0UqZPG7wKcjQKvgn-1" vertex="1">
                    <mxGeometry x="588" width="92" height="40" as="geometry">
                        <mxRectangle width="92" height="40" as="alternateBounds"/>
                    </mxGeometry>
                </mxCell>
                <mxCell id="kxmT0UqZPG7wKcjQKvgn-11" value="" style="shape=partialRectangle;html=1;whiteSpace=wrap;collapsible=0;dropTarget=0;pointerEvents=0;fillColor=none;top=0;left=0;bottom=0;right=0;points=[[0,0.5],[1,0.5]];portConstraint=eastwest;" parent="kxmT0UqZPG7wKcjQKvgn-0" vertex="1">
                    <mxGeometry y="40" width="680" height="40" as="geometry"/>
                </mxCell>
                <mxCell id="kxmT0UqZPG7wKcjQKvgn-12" value="01" style="shape=partialRectangle;html=1;whiteSpace=wrap;connectable=0;fillColor=none;top=0;left=0;bottom=0;right=0;overflow=hidden;pointerEvents=1;" parent="kxmT0UqZPG7wKcjQKvgn-11" vertex="1">
                    <mxGeometry width="114" height="40" as="geometry">
                        <mxRectangle width="114" height="40" as="alternateBounds"/>
                    </mxGeometry>
                </mxCell>
                <mxCell id="kxmT0UqZPG7wKcjQKvgn-13" value="Sun" style="shape=partialRectangle;html=1;whiteSpace=wrap;connectable=0;fillColor=none;top=0;left=0;bottom=0;right=0;overflow=hidden;pointerEvents=1;" parent="kxmT0UqZPG7wKcjQKvgn-11" vertex="1">
                    <mxGeometry x="114" width="111" height="40" as="geometry">
                        <mxRectangle width="111" height="40" as="alternateBounds"/>
                    </mxGeometry>
                </mxCell>
                <mxCell id="kxmT0UqZPG7wKcjQKvgn-14" value="be the star at center of the Solar Sytem" style="shape=partialRectangle;html=1;whiteSpace=wrap;connectable=0;fillColor=none;top=0;left=0;bottom=0;right=0;overflow=hidden;pointerEvents=1;" parent="kxmT0UqZPG7wKcjQKvgn-11" vertex="1">
                    <mxGeometry x="225" width="135" height="40" as="geometry">
                        <mxRectangle width="135" height="40" as="alternateBounds"/>
                    </mxGeometry>
                </mxCell>
                <mxCell id="kxmT0UqZPG7wKcjQKvgn-15" value="0" style="shape=partialRectangle;html=1;whiteSpace=wrap;connectable=0;fillColor=none;top=0;left=0;bottom=0;right=0;overflow=hidden;pointerEvents=1;" parent="kxmT0UqZPG7wKcjQKvgn-11" vertex="1">
                    <mxGeometry x="360" width="120" height="40" as="geometry">
                        <mxRectangle width="120" height="40" as="alternateBounds"/>
                    </mxGeometry>
                </mxCell>
                <mxCell id="kxmT0UqZPG7wKcjQKvgn-16" value="1" style="shape=partialRectangle;html=1;whiteSpace=wrap;connectable=0;fillColor=none;top=0;left=0;bottom=0;right=0;overflow=hidden;pointerEvents=1;" parent="kxmT0UqZPG7wKcjQKvgn-11" vertex="1">
                    <mxGeometry x="480" width="108" height="40" as="geometry">
                        <mxRectangle width="108" height="40" as="alternateBounds"/>
                    </mxGeometry>
                </mxCell>
                <mxCell id="kxmT0UqZPG7wKcjQKvgn-17" value="01" style="shape=partialRectangle;html=1;whiteSpace=wrap;connectable=0;fillColor=none;top=0;left=0;bottom=0;right=0;overflow=hidden;pointerEvents=1;" parent="kxmT0UqZPG7wKcjQKvgn-11" vertex="1">
                    <mxGeometry x="588" width="92" height="40" as="geometry">
                        <mxRectangle width="92" height="40" as="alternateBounds"/>
                    </mxGeometry>
                </mxCell>
                <mxCell id="kxmT0UqZPG7wKcjQKvgn-21" value="" style="shape=partialRectangle;html=1;whiteSpace=wrap;collapsible=0;dropTarget=0;pointerEvents=0;fillColor=none;top=0;left=0;bottom=0;right=0;points=[[0,0.5],[1,0.5]];portConstraint=eastwest;" parent="kxmT0UqZPG7wKcjQKvgn-0" vertex="1">
                    <mxGeometry y="80" width="680" height="40" as="geometry"/>
                </mxCell>
                <mxCell id="kxmT0UqZPG7wKcjQKvgn-22" value="02" style="shape=partialRectangle;html=1;whiteSpace=wrap;connectable=0;fillColor=none;top=0;left=0;bottom=0;right=0;overflow=hidden;pointerEvents=1;" parent="kxmT0UqZPG7wKcjQKvgn-21" vertex="1">
                    <mxGeometry width="114" height="40" as="geometry">
                        <mxRectangle width="114" height="40" as="alternateBounds"/>
                    </mxGeometry>
                </mxCell>
                <mxCell id="kxmT0UqZPG7wKcjQKvgn-23" value="alpha Andromedae" style="shape=partialRectangle;html=1;whiteSpace=wrap;connectable=0;fillColor=none;top=0;left=0;bottom=0;right=0;overflow=hidden;pointerEvents=1;" parent="kxmT0UqZPG7wKcjQKvgn-21" vertex="1">
                    <mxGeometry x="114" width="111" height="40" as="geometry">
                        <mxRectangle width="111" height="40" as="alternateBounds"/>
                    </mxGeometry>
                </mxCell>
                <mxCell id="kxmT0UqZPG7wKcjQKvgn-24" value="be the brightest star&amp;nbsp;" style="shape=partialRectangle;html=1;whiteSpace=wrap;connectable=0;fillColor=none;top=0;left=0;bottom=0;right=0;overflow=hidden;pointerEvents=1;" parent="kxmT0UqZPG7wKcjQKvgn-21" vertex="1">
                    <mxGeometry x="225" width="135" height="40" as="geometry">
                        <mxRectangle width="135" height="40" as="alternateBounds"/>
                    </mxGeometry>
                </mxCell>
                <mxCell id="kxmT0UqZPG7wKcjQKvgn-25" value="97" style="shape=partialRectangle;html=1;whiteSpace=wrap;connectable=0;fillColor=none;top=0;left=0;bottom=0;right=0;overflow=hidden;pointerEvents=1;" parent="kxmT0UqZPG7wKcjQKvgn-21" vertex="1">
                    <mxGeometry x="360" width="120" height="40" as="geometry">
                        <mxRectangle width="120" height="40" as="alternateBounds"/>
                    </mxGeometry>
                </mxCell>
                <mxCell id="kxmT0UqZPG7wKcjQKvgn-26" value="3.8" style="shape=partialRectangle;html=1;whiteSpace=wrap;connectable=0;fillColor=none;top=0;left=0;bottom=0;right=0;overflow=hidden;pointerEvents=1;" parent="kxmT0UqZPG7wKcjQKvgn-21" vertex="1">
                    <mxGeometry x="480" width="108" height="40" as="geometry">
                        <mxRectangle width="108" height="40" as="alternateBounds"/>
                    </mxGeometry>
                </mxCell>
                <mxCell id="kxmT0UqZPG7wKcjQKvgn-27" value="02" style="shape=partialRectangle;html=1;whiteSpace=wrap;connectable=0;fillColor=none;top=0;left=0;bottom=0;right=0;overflow=hidden;pointerEvents=1;" parent="kxmT0UqZPG7wKcjQKvgn-21" vertex="1">
                    <mxGeometry x="588" width="92" height="40" as="geometry">
                        <mxRectangle width="92" height="40" as="alternateBounds"/>
                    </mxGeometry>
                </mxCell>
                <mxCell id="1Xx-11QF6NuksRuIi8j--0" style="shape=partialRectangle;html=1;whiteSpace=wrap;collapsible=0;dropTarget=0;pointerEvents=0;fillColor=none;top=0;left=0;bottom=0;right=0;points=[[0,0.5],[1,0.5]];portConstraint=eastwest;" parent="kxmT0UqZPG7wKcjQKvgn-0" vertex="1">
                    <mxGeometry y="120" width="680" height="40" as="geometry"/>
                </mxCell>
                <mxCell id="1Xx-11QF6NuksRuIi8j--1" value="03" style="shape=partialRectangle;html=1;whiteSpace=wrap;connectable=0;fillColor=none;top=0;left=0;bottom=0;right=0;overflow=hidden;pointerEvents=1;" parent="1Xx-11QF6NuksRuIi8j--0" vertex="1">
                    <mxGeometry width="114" height="40" as="geometry">
                        <mxRectangle width="114" height="40" as="alternateBounds"/>
                    </mxGeometry>
                </mxCell>
                <mxCell id="1Xx-11QF6NuksRuIi8j--2" value="Ross 248&lt;span style=&quot;white-space: pre&quot;&gt;&#9;&lt;/span&gt;" style="shape=partialRectangle;html=1;whiteSpace=wrap;connectable=0;fillColor=none;top=0;left=0;bottom=0;right=0;overflow=hidden;pointerEvents=1;" parent="1Xx-11QF6NuksRuIi8j--0" vertex="1">
                    <mxGeometry x="114" width="111" height="40" as="geometry">
                        <mxRectangle width="111" height="40" as="alternateBounds"/>
                    </mxGeometry>
                </mxCell>
                <mxCell id="1Xx-11QF6NuksRuIi8j--3" value="in the northern constellation" style="shape=partialRectangle;html=1;whiteSpace=wrap;connectable=0;fillColor=none;top=0;left=0;bottom=0;right=0;overflow=hidden;pointerEvents=1;" parent="1Xx-11QF6NuksRuIi8j--0" vertex="1">
                    <mxGeometry x="225" width="135" height="40" as="geometry">
                        <mxRectangle width="135" height="40" as="alternateBounds"/>
                    </mxGeometry>
                </mxCell>
                <mxCell id="1Xx-11QF6NuksRuIi8j--4" value="10" style="shape=partialRectangle;html=1;whiteSpace=wrap;connectable=0;fillColor=none;top=0;left=0;bottom=0;right=0;overflow=hidden;pointerEvents=1;" parent="1Xx-11QF6NuksRuIi8j--0" vertex="1">
                    <mxGeometry x="360" width="120" height="40" as="geometry">
                        <mxRectangle width="120" height="40" as="alternateBounds"/>
                    </mxGeometry>
                </mxCell>
                <mxCell id="1Xx-11QF6NuksRuIi8j--5" value="0.136" style="shape=partialRectangle;html=1;whiteSpace=wrap;connectable=0;fillColor=none;top=0;left=0;bottom=0;right=0;overflow=hidden;pointerEvents=1;" parent="1Xx-11QF6NuksRuIi8j--0" vertex="1">
                    <mxGeometry x="480" width="108" height="40" as="geometry">
                        <mxRectangle width="108" height="40" as="alternateBounds"/>
                    </mxGeometry>
                </mxCell>
                <mxCell id="1Xx-11QF6NuksRuIi8j--6" value="02" style="shape=partialRectangle;html=1;whiteSpace=wrap;connectable=0;fillColor=none;top=0;left=0;bottom=0;right=0;overflow=hidden;pointerEvents=1;" parent="1Xx-11QF6NuksRuIi8j--0" vertex="1">
                    <mxGeometry x="588" width="92" height="40" as="geometry">
                        <mxRectangle width="92" height="40" as="alternateBounds"/>
                    </mxGeometry>
                </mxCell>
                <mxCell id="iLPTzwoLJYJ749XBoRyY-0" style="shape=partialRectangle;html=1;whiteSpace=wrap;collapsible=0;dropTarget=0;pointerEvents=0;fillColor=none;top=0;left=0;bottom=0;right=0;points=[[0,0.5],[1,0.5]];portConstraint=eastwest;" parent="kxmT0UqZPG7wKcjQKvgn-0" vertex="1">
                    <mxGeometry y="160" width="680" height="40" as="geometry"/>
                </mxCell>
                <mxCell id="iLPTzwoLJYJ749XBoRyY-1" value="04" style="shape=partialRectangle;html=1;whiteSpace=wrap;connectable=0;fillColor=none;top=0;left=0;bottom=0;right=0;overflow=hidden;pointerEvents=1;" parent="iLPTzwoLJYJ749XBoRyY-0" vertex="1">
                    <mxGeometry width="114" height="40" as="geometry">
                        <mxRectangle width="114" height="40" as="alternateBounds"/>
                    </mxGeometry>
                </mxCell>
                <mxCell id="iLPTzwoLJYJ749XBoRyY-2" value="beta Leo" style="shape=partialRectangle;html=1;whiteSpace=wrap;connectable=0;fillColor=none;top=0;left=0;bottom=0;right=0;overflow=hidden;pointerEvents=1;" parent="iLPTzwoLJYJ749XBoRyY-0" vertex="1">
                    <mxGeometry x="114" width="111" height="40" as="geometry">
                        <mxRectangle width="111" height="40" as="alternateBounds"/>
                    </mxGeometry>
                </mxCell>
                <mxCell id="iLPTzwoLJYJ749XBoRyY-3" value="Has the Bayer designation Beta Laonis" style="shape=partialRectangle;html=1;whiteSpace=wrap;connectable=0;fillColor=none;top=0;left=0;bottom=0;right=0;overflow=hidden;pointerEvents=1;" parent="iLPTzwoLJYJ749XBoRyY-0" vertex="1">
                    <mxGeometry x="225" width="135" height="40" as="geometry">
                        <mxRectangle width="135" height="40" as="alternateBounds"/>
                    </mxGeometry>
                </mxCell>
                <mxCell id="iLPTzwoLJYJ749XBoRyY-4" value="36" style="shape=partialRectangle;html=1;whiteSpace=wrap;connectable=0;fillColor=none;top=0;left=0;bottom=0;right=0;overflow=hidden;pointerEvents=1;" parent="iLPTzwoLJYJ749XBoRyY-0" vertex="1">
                    <mxGeometry x="360" width="120" height="40" as="geometry">
                        <mxRectangle width="120" height="40" as="alternateBounds"/>
                    </mxGeometry>
                </mxCell>
                <mxCell id="iLPTzwoLJYJ749XBoRyY-5" value="1.78" style="shape=partialRectangle;html=1;whiteSpace=wrap;connectable=0;fillColor=none;top=0;left=0;bottom=0;right=0;overflow=hidden;pointerEvents=1;" parent="iLPTzwoLJYJ749XBoRyY-0" vertex="1">
                    <mxGeometry x="480" width="108" height="40" as="geometry">
                        <mxRectangle width="108" height="40" as="alternateBounds"/>
                    </mxGeometry>
                </mxCell>
                <mxCell id="iLPTzwoLJYJ749XBoRyY-6" value="05" style="shape=partialRectangle;html=1;whiteSpace=wrap;connectable=0;fillColor=none;top=0;left=0;bottom=0;right=0;overflow=hidden;pointerEvents=1;" parent="iLPTzwoLJYJ749XBoRyY-0" vertex="1">
                    <mxGeometry x="588" width="92" height="40" as="geometry">
                        <mxRectangle width="92" height="40" as="alternateBounds"/>
                    </mxGeometry>
                </mxCell>
                <mxCell id="Kff-ozxDYsC8TOLwu9Xz-0" style="shape=partialRectangle;html=1;whiteSpace=wrap;collapsible=0;dropTarget=0;pointerEvents=0;fillColor=none;top=0;left=0;bottom=0;right=0;points=[[0,0.5],[1,0.5]];portConstraint=eastwest;" parent="kxmT0UqZPG7wKcjQKvgn-0" vertex="1">
                    <mxGeometry y="200" width="680" height="40" as="geometry"/>
                </mxCell>
                <mxCell id="Kff-ozxDYsC8TOLwu9Xz-1" value="05" style="shape=partialRectangle;html=1;whiteSpace=wrap;connectable=0;fillColor=none;top=0;left=0;bottom=0;right=0;overflow=hidden;pointerEvents=1;" parent="Kff-ozxDYsC8TOLwu9Xz-0" vertex="1">
                    <mxGeometry width="114" height="40" as="geometry">
                        <mxRectangle width="114" height="40" as="alternateBounds"/>
                    </mxGeometry>
                </mxCell>
                <mxCell id="Kff-ozxDYsC8TOLwu9Xz-2" value="epsilon Virginis" style="shape=partialRectangle;html=1;whiteSpace=wrap;connectable=0;fillColor=none;top=0;left=0;bottom=0;right=0;overflow=hidden;pointerEvents=1;" parent="Kff-ozxDYsC8TOLwu9Xz-0" vertex="1">
                    <mxGeometry x="114" width="111" height="40" as="geometry">
                        <mxRectangle width="111" height="40" as="alternateBounds"/>
                    </mxGeometry>
                </mxCell>
                <mxCell id="Kff-ozxDYsC8TOLwu9Xz-3" value="In the zodiac constellation of Virgo" style="shape=partialRectangle;html=1;whiteSpace=wrap;connectable=0;fillColor=none;top=0;left=0;bottom=0;right=0;overflow=hidden;pointerEvents=1;" parent="Kff-ozxDYsC8TOLwu9Xz-0" vertex="1">
                    <mxGeometry x="225" width="135" height="40" as="geometry">
                        <mxRectangle width="135" height="40" as="alternateBounds"/>
                    </mxGeometry>
                </mxCell>
                <mxCell id="Kff-ozxDYsC8TOLwu9Xz-4" value="110" style="shape=partialRectangle;html=1;whiteSpace=wrap;connectable=0;fillColor=none;top=0;left=0;bottom=0;right=0;overflow=hidden;pointerEvents=1;" parent="Kff-ozxDYsC8TOLwu9Xz-0" vertex="1">
                    <mxGeometry x="360" width="120" height="40" as="geometry">
                        <mxRectangle width="120" height="40" as="alternateBounds"/>
                    </mxGeometry>
                </mxCell>
                <mxCell id="Kff-ozxDYsC8TOLwu9Xz-5" value="2.64" style="shape=partialRectangle;html=1;whiteSpace=wrap;connectable=0;fillColor=none;top=0;left=0;bottom=0;right=0;overflow=hidden;pointerEvents=1;" parent="Kff-ozxDYsC8TOLwu9Xz-0" vertex="1">
                    <mxGeometry x="480" width="108" height="40" as="geometry">
                        <mxRectangle width="108" height="40" as="alternateBounds"/>
                    </mxGeometry>
                </mxCell>
                <mxCell id="Kff-ozxDYsC8TOLwu9Xz-6" value="05" style="shape=partialRectangle;html=1;whiteSpace=wrap;connectable=0;fillColor=none;top=0;left=0;bottom=0;right=0;overflow=hidden;pointerEvents=1;" parent="Kff-ozxDYsC8TOLwu9Xz-0" vertex="1">
                    <mxGeometry x="588" width="92" height="40" as="geometry">
                        <mxRectangle width="92" height="40" as="alternateBounds"/>
                    </mxGeometry>
                </mxCell>
                <mxCell id="kQOqWkx1kC7Sf2tgymII-0" style="shape=partialRectangle;html=1;whiteSpace=wrap;collapsible=0;dropTarget=0;pointerEvents=0;fillColor=none;top=0;left=0;bottom=0;right=0;points=[[0,0.5],[1,0.5]];portConstraint=eastwest;" parent="kxmT0UqZPG7wKcjQKvgn-0" vertex="1">
                    <mxGeometry y="240" width="680" height="40" as="geometry"/>
                </mxCell>
                <mxCell id="kQOqWkx1kC7Sf2tgymII-1" value="06" style="shape=partialRectangle;html=1;whiteSpace=wrap;connectable=0;fillColor=none;top=0;left=0;bottom=0;right=0;overflow=hidden;pointerEvents=1;" parent="kQOqWkx1kC7Sf2tgymII-0" vertex="1">
                    <mxGeometry width="114" height="40" as="geometry">
                        <mxRectangle width="114" height="40" as="alternateBounds"/>
                    </mxGeometry>
                </mxCell>
                <mxCell id="kQOqWkx1kC7Sf2tgymII-2" value="NGC 6397" style="shape=partialRectangle;html=1;whiteSpace=wrap;connectable=0;fillColor=none;top=0;left=0;bottom=0;right=0;overflow=hidden;pointerEvents=1;" parent="kQOqWkx1kC7Sf2tgymII-0" vertex="1">
                    <mxGeometry x="114" width="111" height="40" as="geometry">
                        <mxRectangle width="111" height="40" as="alternateBounds"/>
                    </mxGeometry>
                </mxCell>
                <mxCell id="kQOqWkx1kC7Sf2tgymII-3" value="Be one of star in Milky Way" style="shape=partialRectangle;html=1;whiteSpace=wrap;connectable=0;fillColor=none;top=0;left=0;bottom=0;right=0;overflow=hidden;pointerEvents=1;" parent="kQOqWkx1kC7Sf2tgymII-0" vertex="1">
                    <mxGeometry x="225" width="135" height="40" as="geometry">
                        <mxRectangle width="135" height="40" as="alternateBounds"/>
                    </mxGeometry>
                </mxCell>
                <mxCell id="kQOqWkx1kC7Sf2tgymII-4" value="8" style="shape=partialRectangle;html=1;whiteSpace=wrap;connectable=0;fillColor=none;top=0;left=0;bottom=0;right=0;overflow=hidden;pointerEvents=1;" parent="kQOqWkx1kC7Sf2tgymII-0" vertex="1">
                    <mxGeometry x="360" width="120" height="40" as="geometry">
                        <mxRectangle width="120" height="40" as="alternateBounds"/>
                    </mxGeometry>
                </mxCell>
                <mxCell id="kQOqWkx1kC7Sf2tgymII-5" value="450" style="shape=partialRectangle;html=1;whiteSpace=wrap;connectable=0;fillColor=none;top=0;left=0;bottom=0;right=0;overflow=hidden;pointerEvents=1;" parent="kQOqWkx1kC7Sf2tgymII-0" vertex="1">
                    <mxGeometry x="480" width="108" height="40" as="geometry">
                        <mxRectangle width="108" height="40" as="alternateBounds"/>
                    </mxGeometry>
                </mxCell>
                <mxCell id="kQOqWkx1kC7Sf2tgymII-6" value="01" style="shape=partialRectangle;html=1;whiteSpace=wrap;connectable=0;fillColor=none;top=0;left=0;bottom=0;right=0;overflow=hidden;pointerEvents=1;" parent="kQOqWkx1kC7Sf2tgymII-0" vertex="1">
                    <mxGeometry x="588" width="92" height="40" as="geometry">
                        <mxRectangle width="92" height="40" as="alternateBounds"/>
                    </mxGeometry>
                </mxCell>
            </root>
        </mxGraphModel>
    </diagram>
    <diagram id="r_dkCrMRVOfaQBn-_07j" name="Page-4">
        <mxGraphModel dx="1369" dy="790" grid="1" gridSize="10" guides="1" tooltips="1" connect="1" arrows="1" fold="1" page="1" pageScale="1" pageWidth="10000" pageHeight="10000" math="0" shadow="0">
            <root>
                <mxCell id="k5CFwlNPyWoh3TghyDXK-0"/>
                <mxCell id="k5CFwlNPyWoh3TghyDXK-1" parent="k5CFwlNPyWoh3TghyDXK-0"/>
                <mxCell id="SvXkeg4vUTf-NOkOIB7w-0" value="" style="shape=table;html=1;whiteSpace=wrap;startSize=0;container=1;collapsible=0;childLayout=tableLayout;" parent="k5CFwlNPyWoh3TghyDXK-1" vertex="1">
                    <mxGeometry x="42" y="80" width="772" height="520" as="geometry"/>
                </mxCell>
                <mxCell id="SvXkeg4vUTf-NOkOIB7w-1" value="" style="shape=partialRectangle;html=1;whiteSpace=wrap;collapsible=0;dropTarget=0;pointerEvents=0;fillColor=none;top=0;left=0;bottom=0;right=0;points=[[0,0.5],[1,0.5]];portConstraint=eastwest;" parent="SvXkeg4vUTf-NOkOIB7w-0" vertex="1">
                    <mxGeometry width="772" height="40" as="geometry"/>
                </mxCell>
                <mxCell id="SvXkeg4vUTf-NOkOIB7w-2" value="planet_id" style="shape=partialRectangle;html=1;whiteSpace=wrap;connectable=0;fillColor=none;top=0;left=0;bottom=0;right=0;overflow=hidden;pointerEvents=1;" parent="SvXkeg4vUTf-NOkOIB7w-1" vertex="1">
                    <mxGeometry width="114" height="40" as="geometry">
                        <mxRectangle width="114" height="40" as="alternateBounds"/>
                    </mxGeometry>
                </mxCell>
                <mxCell id="SvXkeg4vUTf-NOkOIB7w-3" value="planet_name" style="shape=partialRectangle;html=1;whiteSpace=wrap;connectable=0;fillColor=none;top=0;left=0;bottom=0;right=0;overflow=hidden;pointerEvents=1;" parent="SvXkeg4vUTf-NOkOIB7w-1" vertex="1">
                    <mxGeometry x="114" width="111" height="40" as="geometry">
                        <mxRectangle width="111" height="40" as="alternateBounds"/>
                    </mxGeometry>
                </mxCell>
                <mxCell id="SvXkeg4vUTf-NOkOIB7w-4" value="weight_Me" style="shape=partialRectangle;html=1;whiteSpace=wrap;connectable=0;fillColor=none;top=0;left=0;bottom=0;right=0;overflow=hidden;pointerEvents=1;" parent="SvXkeg4vUTf-NOkOIB7w-1" vertex="1">
                    <mxGeometry x="225" width="135" height="40" as="geometry">
                        <mxRectangle width="135" height="40" as="alternateBounds"/>
                    </mxGeometry>
                </mxCell>
                <mxCell id="SvXkeg4vUTf-NOkOIB7w-5" value="moon" style="shape=partialRectangle;html=1;whiteSpace=wrap;connectable=0;fillColor=none;top=0;left=0;bottom=0;right=0;overflow=hidden;pointerEvents=1;" parent="SvXkeg4vUTf-NOkOIB7w-1" vertex="1">
                    <mxGeometry x="360" width="120" height="40" as="geometry">
                        <mxRectangle width="120" height="40" as="alternateBounds"/>
                    </mxGeometry>
                </mxCell>
                <mxCell id="SvXkeg4vUTf-NOkOIB7w-6" value="has_life" style="shape=partialRectangle;html=1;whiteSpace=wrap;connectable=0;fillColor=none;top=0;left=0;bottom=0;right=0;overflow=hidden;pointerEvents=1;" parent="SvXkeg4vUTf-NOkOIB7w-1" vertex="1">
                    <mxGeometry x="480" width="108" height="40" as="geometry">
                        <mxRectangle width="108" height="40" as="alternateBounds"/>
                    </mxGeometry>
                </mxCell>
                <mxCell id="SvXkeg4vUTf-NOkOIB7w-7" value="has_ring" style="shape=partialRectangle;html=1;whiteSpace=wrap;connectable=0;fillColor=none;top=0;left=0;bottom=0;right=0;overflow=hidden;pointerEvents=1;" parent="SvXkeg4vUTf-NOkOIB7w-1" vertex="1">
                    <mxGeometry x="588" width="92" height="40" as="geometry">
                        <mxRectangle width="92" height="40" as="alternateBounds"/>
                    </mxGeometry>
                </mxCell>
                <mxCell id="HL1FHidnzmdkd6o-oVcA-0" value="star_id" style="shape=partialRectangle;html=1;whiteSpace=wrap;connectable=0;fillColor=none;top=0;left=0;bottom=0;right=0;overflow=hidden;pointerEvents=1;" parent="SvXkeg4vUTf-NOkOIB7w-1" vertex="1">
                    <mxGeometry x="680" width="92" height="40" as="geometry">
                        <mxRectangle width="92" height="40" as="alternateBounds"/>
                    </mxGeometry>
                </mxCell>
                <mxCell id="SvXkeg4vUTf-NOkOIB7w-8" value="" style="shape=partialRectangle;html=1;whiteSpace=wrap;collapsible=0;dropTarget=0;pointerEvents=0;fillColor=none;top=0;left=0;bottom=0;right=0;points=[[0,0.5],[1,0.5]];portConstraint=eastwest;" parent="SvXkeg4vUTf-NOkOIB7w-0" vertex="1">
                    <mxGeometry y="40" width="772" height="40" as="geometry"/>
                </mxCell>
                <mxCell id="SvXkeg4vUTf-NOkOIB7w-9" value="01" style="shape=partialRectangle;html=1;whiteSpace=wrap;connectable=0;fillColor=none;top=0;left=0;bottom=0;right=0;overflow=hidden;pointerEvents=1;" parent="SvXkeg4vUTf-NOkOIB7w-8" vertex="1">
                    <mxGeometry width="114" height="40" as="geometry">
                        <mxRectangle width="114" height="40" as="alternateBounds"/>
                    </mxGeometry>
                </mxCell>
                <mxCell id="SvXkeg4vUTf-NOkOIB7w-10" value="Mercury" style="shape=partialRectangle;html=1;whiteSpace=wrap;connectable=0;fillColor=none;top=0;left=0;bottom=0;right=0;overflow=hidden;pointerEvents=1;" parent="SvXkeg4vUTf-NOkOIB7w-8" vertex="1">
                    <mxGeometry x="114" width="111" height="40" as="geometry">
                        <mxRectangle width="111" height="40" as="alternateBounds"/>
                    </mxGeometry>
                </mxCell>
                <mxCell id="SvXkeg4vUTf-NOkOIB7w-11" value="0.06" style="shape=partialRectangle;html=1;whiteSpace=wrap;connectable=0;fillColor=none;top=0;left=0;bottom=0;right=0;overflow=hidden;pointerEvents=1;" parent="SvXkeg4vUTf-NOkOIB7w-8" vertex="1">
                    <mxGeometry x="225" width="135" height="40" as="geometry">
                        <mxRectangle width="135" height="40" as="alternateBounds"/>
                    </mxGeometry>
                </mxCell>
                <mxCell id="SvXkeg4vUTf-NOkOIB7w-12" value="0" style="shape=partialRectangle;html=1;whiteSpace=wrap;connectable=0;fillColor=none;top=0;left=0;bottom=0;right=0;overflow=hidden;pointerEvents=1;" parent="SvXkeg4vUTf-NOkOIB7w-8" vertex="1">
                    <mxGeometry x="360" width="120" height="40" as="geometry">
                        <mxRectangle width="120" height="40" as="alternateBounds"/>
                    </mxGeometry>
                </mxCell>
                <mxCell id="SvXkeg4vUTf-NOkOIB7w-13" value="false" style="shape=partialRectangle;html=1;whiteSpace=wrap;connectable=0;fillColor=none;top=0;left=0;bottom=0;right=0;overflow=hidden;pointerEvents=1;" parent="SvXkeg4vUTf-NOkOIB7w-8" vertex="1">
                    <mxGeometry x="480" width="108" height="40" as="geometry">
                        <mxRectangle width="108" height="40" as="alternateBounds"/>
                    </mxGeometry>
                </mxCell>
                <mxCell id="SvXkeg4vUTf-NOkOIB7w-14" value="false" style="shape=partialRectangle;html=1;whiteSpace=wrap;connectable=0;fillColor=none;top=0;left=0;bottom=0;right=0;overflow=hidden;pointerEvents=1;" parent="SvXkeg4vUTf-NOkOIB7w-8" vertex="1">
                    <mxGeometry x="588" width="92" height="40" as="geometry">
                        <mxRectangle width="92" height="40" as="alternateBounds"/>
                    </mxGeometry>
                </mxCell>
                <mxCell id="HL1FHidnzmdkd6o-oVcA-1" value="01" style="shape=partialRectangle;html=1;whiteSpace=wrap;connectable=0;fillColor=none;top=0;left=0;bottom=0;right=0;overflow=hidden;pointerEvents=1;" parent="SvXkeg4vUTf-NOkOIB7w-8" vertex="1">
                    <mxGeometry x="680" width="92" height="40" as="geometry">
                        <mxRectangle width="92" height="40" as="alternateBounds"/>
                    </mxGeometry>
                </mxCell>
                <mxCell id="SvXkeg4vUTf-NOkOIB7w-15" value="" style="shape=partialRectangle;html=1;whiteSpace=wrap;collapsible=0;dropTarget=0;pointerEvents=0;fillColor=none;top=0;left=0;bottom=0;right=0;points=[[0,0.5],[1,0.5]];portConstraint=eastwest;" parent="SvXkeg4vUTf-NOkOIB7w-0" vertex="1">
                    <mxGeometry y="80" width="772" height="40" as="geometry"/>
                </mxCell>
                <mxCell id="SvXkeg4vUTf-NOkOIB7w-16" value="02" style="shape=partialRectangle;html=1;whiteSpace=wrap;connectable=0;fillColor=none;top=0;left=0;bottom=0;right=0;overflow=hidden;pointerEvents=1;" parent="SvXkeg4vUTf-NOkOIB7w-15" vertex="1">
                    <mxGeometry width="114" height="40" as="geometry">
                        <mxRectangle width="114" height="40" as="alternateBounds"/>
                    </mxGeometry>
                </mxCell>
                <mxCell id="SvXkeg4vUTf-NOkOIB7w-17" value="Venus" style="shape=partialRectangle;html=1;whiteSpace=wrap;connectable=0;fillColor=none;top=0;left=0;bottom=0;right=0;overflow=hidden;pointerEvents=1;" parent="SvXkeg4vUTf-NOkOIB7w-15" vertex="1">
                    <mxGeometry x="114" width="111" height="40" as="geometry">
                        <mxRectangle width="111" height="40" as="alternateBounds"/>
                    </mxGeometry>
                </mxCell>
                <mxCell id="SvXkeg4vUTf-NOkOIB7w-18" value="0.81" style="shape=partialRectangle;html=1;whiteSpace=wrap;connectable=0;fillColor=none;top=0;left=0;bottom=0;right=0;overflow=hidden;pointerEvents=1;" parent="SvXkeg4vUTf-NOkOIB7w-15" vertex="1">
                    <mxGeometry x="225" width="135" height="40" as="geometry">
                        <mxRectangle width="135" height="40" as="alternateBounds"/>
                    </mxGeometry>
                </mxCell>
                <mxCell id="SvXkeg4vUTf-NOkOIB7w-19" value="0" style="shape=partialRectangle;html=1;whiteSpace=wrap;connectable=0;fillColor=none;top=0;left=0;bottom=0;right=0;overflow=hidden;pointerEvents=1;" parent="SvXkeg4vUTf-NOkOIB7w-15" vertex="1">
                    <mxGeometry x="360" width="120" height="40" as="geometry">
                        <mxRectangle width="120" height="40" as="alternateBounds"/>
                    </mxGeometry>
                </mxCell>
                <mxCell id="SvXkeg4vUTf-NOkOIB7w-20" value="false" style="shape=partialRectangle;html=1;whiteSpace=wrap;connectable=0;fillColor=none;top=0;left=0;bottom=0;right=0;overflow=hidden;pointerEvents=1;" parent="SvXkeg4vUTf-NOkOIB7w-15" vertex="1">
                    <mxGeometry x="480" width="108" height="40" as="geometry">
                        <mxRectangle width="108" height="40" as="alternateBounds"/>
                    </mxGeometry>
                </mxCell>
                <mxCell id="SvXkeg4vUTf-NOkOIB7w-21" value="false" style="shape=partialRectangle;html=1;whiteSpace=wrap;connectable=0;fillColor=none;top=0;left=0;bottom=0;right=0;overflow=hidden;pointerEvents=1;" parent="SvXkeg4vUTf-NOkOIB7w-15" vertex="1">
                    <mxGeometry x="588" width="92" height="40" as="geometry">
                        <mxRectangle width="92" height="40" as="alternateBounds"/>
                    </mxGeometry>
                </mxCell>
                <mxCell id="HL1FHidnzmdkd6o-oVcA-2" value="01" style="shape=partialRectangle;html=1;whiteSpace=wrap;connectable=0;fillColor=none;top=0;left=0;bottom=0;right=0;overflow=hidden;pointerEvents=1;" parent="SvXkeg4vUTf-NOkOIB7w-15" vertex="1">
                    <mxGeometry x="680" width="92" height="40" as="geometry">
                        <mxRectangle width="92" height="40" as="alternateBounds"/>
                    </mxGeometry>
                </mxCell>
                <mxCell id="SvXkeg4vUTf-NOkOIB7w-22" style="shape=partialRectangle;html=1;whiteSpace=wrap;collapsible=0;dropTarget=0;pointerEvents=0;fillColor=none;top=0;left=0;bottom=0;right=0;points=[[0,0.5],[1,0.5]];portConstraint=eastwest;" parent="SvXkeg4vUTf-NOkOIB7w-0" vertex="1">
                    <mxGeometry y="120" width="772" height="40" as="geometry"/>
                </mxCell>
                <mxCell id="SvXkeg4vUTf-NOkOIB7w-23" value="03" style="shape=partialRectangle;html=1;whiteSpace=wrap;connectable=0;fillColor=none;top=0;left=0;bottom=0;right=0;overflow=hidden;pointerEvents=1;" parent="SvXkeg4vUTf-NOkOIB7w-22" vertex="1">
                    <mxGeometry width="114" height="40" as="geometry">
                        <mxRectangle width="114" height="40" as="alternateBounds"/>
                    </mxGeometry>
                </mxCell>
                <mxCell id="SvXkeg4vUTf-NOkOIB7w-24" value="Earth" style="shape=partialRectangle;html=1;whiteSpace=wrap;connectable=0;fillColor=none;top=0;left=0;bottom=0;right=0;overflow=hidden;pointerEvents=1;" parent="SvXkeg4vUTf-NOkOIB7w-22" vertex="1">
                    <mxGeometry x="114" width="111" height="40" as="geometry">
                        <mxRectangle width="111" height="40" as="alternateBounds"/>
                    </mxGeometry>
                </mxCell>
                <mxCell id="SvXkeg4vUTf-NOkOIB7w-25" value="1.00" style="shape=partialRectangle;html=1;whiteSpace=wrap;connectable=0;fillColor=none;top=0;left=0;bottom=0;right=0;overflow=hidden;pointerEvents=1;" parent="SvXkeg4vUTf-NOkOIB7w-22" vertex="1">
                    <mxGeometry x="225" width="135" height="40" as="geometry">
                        <mxRectangle width="135" height="40" as="alternateBounds"/>
                    </mxGeometry>
                </mxCell>
                <mxCell id="SvXkeg4vUTf-NOkOIB7w-26" value="1" style="shape=partialRectangle;html=1;whiteSpace=wrap;connectable=0;fillColor=none;top=0;left=0;bottom=0;right=0;overflow=hidden;pointerEvents=1;" parent="SvXkeg4vUTf-NOkOIB7w-22" vertex="1">
                    <mxGeometry x="360" width="120" height="40" as="geometry">
                        <mxRectangle width="120" height="40" as="alternateBounds"/>
                    </mxGeometry>
                </mxCell>
                <mxCell id="SvXkeg4vUTf-NOkOIB7w-27" value="true" style="shape=partialRectangle;html=1;whiteSpace=wrap;connectable=0;fillColor=none;top=0;left=0;bottom=0;right=0;overflow=hidden;pointerEvents=1;" parent="SvXkeg4vUTf-NOkOIB7w-22" vertex="1">
                    <mxGeometry x="480" width="108" height="40" as="geometry">
                        <mxRectangle width="108" height="40" as="alternateBounds"/>
                    </mxGeometry>
                </mxCell>
                <mxCell id="SvXkeg4vUTf-NOkOIB7w-28" value="false" style="shape=partialRectangle;html=1;whiteSpace=wrap;connectable=0;fillColor=none;top=0;left=0;bottom=0;right=0;overflow=hidden;pointerEvents=1;" parent="SvXkeg4vUTf-NOkOIB7w-22" vertex="1">
                    <mxGeometry x="588" width="92" height="40" as="geometry">
                        <mxRectangle width="92" height="40" as="alternateBounds"/>
                    </mxGeometry>
                </mxCell>
                <mxCell id="HL1FHidnzmdkd6o-oVcA-3" value="01" style="shape=partialRectangle;html=1;whiteSpace=wrap;connectable=0;fillColor=none;top=0;left=0;bottom=0;right=0;overflow=hidden;pointerEvents=1;" parent="SvXkeg4vUTf-NOkOIB7w-22" vertex="1">
                    <mxGeometry x="680" width="92" height="40" as="geometry">
                        <mxRectangle width="92" height="40" as="alternateBounds"/>
                    </mxGeometry>
                </mxCell>
                <mxCell id="SvXkeg4vUTf-NOkOIB7w-29" style="shape=partialRectangle;html=1;whiteSpace=wrap;collapsible=0;dropTarget=0;pointerEvents=0;fillColor=none;top=0;left=0;bottom=0;right=0;points=[[0,0.5],[1,0.5]];portConstraint=eastwest;" parent="SvXkeg4vUTf-NOkOIB7w-0" vertex="1">
                    <mxGeometry y="160" width="772" height="40" as="geometry"/>
                </mxCell>
                <mxCell id="SvXkeg4vUTf-NOkOIB7w-30" value="04" style="shape=partialRectangle;html=1;whiteSpace=wrap;connectable=0;fillColor=none;top=0;left=0;bottom=0;right=0;overflow=hidden;pointerEvents=1;" parent="SvXkeg4vUTf-NOkOIB7w-29" vertex="1">
                    <mxGeometry width="114" height="40" as="geometry">
                        <mxRectangle width="114" height="40" as="alternateBounds"/>
                    </mxGeometry>
                </mxCell>
                <mxCell id="SvXkeg4vUTf-NOkOIB7w-31" value="Mars" style="shape=partialRectangle;html=1;whiteSpace=wrap;connectable=0;fillColor=none;top=0;left=0;bottom=0;right=0;overflow=hidden;pointerEvents=1;" parent="SvXkeg4vUTf-NOkOIB7w-29" vertex="1">
                    <mxGeometry x="114" width="111" height="40" as="geometry">
                        <mxRectangle width="111" height="40" as="alternateBounds"/>
                    </mxGeometry>
                </mxCell>
                <mxCell id="SvXkeg4vUTf-NOkOIB7w-32" value="0.11" style="shape=partialRectangle;html=1;whiteSpace=wrap;connectable=0;fillColor=none;top=0;left=0;bottom=0;right=0;overflow=hidden;pointerEvents=1;" parent="SvXkeg4vUTf-NOkOIB7w-29" vertex="1">
                    <mxGeometry x="225" width="135" height="40" as="geometry">
                        <mxRectangle width="135" height="40" as="alternateBounds"/>
                    </mxGeometry>
                </mxCell>
                <mxCell id="SvXkeg4vUTf-NOkOIB7w-33" value="2" style="shape=partialRectangle;html=1;whiteSpace=wrap;connectable=0;fillColor=none;top=0;left=0;bottom=0;right=0;overflow=hidden;pointerEvents=1;" parent="SvXkeg4vUTf-NOkOIB7w-29" vertex="1">
                    <mxGeometry x="360" width="120" height="40" as="geometry">
                        <mxRectangle width="120" height="40" as="alternateBounds"/>
                    </mxGeometry>
                </mxCell>
                <mxCell id="SvXkeg4vUTf-NOkOIB7w-34" value="false" style="shape=partialRectangle;html=1;whiteSpace=wrap;connectable=0;fillColor=none;top=0;left=0;bottom=0;right=0;overflow=hidden;pointerEvents=1;" parent="SvXkeg4vUTf-NOkOIB7w-29" vertex="1">
                    <mxGeometry x="480" width="108" height="40" as="geometry">
                        <mxRectangle width="108" height="40" as="alternateBounds"/>
                    </mxGeometry>
                </mxCell>
                <mxCell id="SvXkeg4vUTf-NOkOIB7w-35" value="false" style="shape=partialRectangle;html=1;whiteSpace=wrap;connectable=0;fillColor=none;top=0;left=0;bottom=0;right=0;overflow=hidden;pointerEvents=1;" parent="SvXkeg4vUTf-NOkOIB7w-29" vertex="1">
                    <mxGeometry x="588" width="92" height="40" as="geometry">
                        <mxRectangle width="92" height="40" as="alternateBounds"/>
                    </mxGeometry>
                </mxCell>
                <mxCell id="HL1FHidnzmdkd6o-oVcA-4" value="01" style="shape=partialRectangle;html=1;whiteSpace=wrap;connectable=0;fillColor=none;top=0;left=0;bottom=0;right=0;overflow=hidden;pointerEvents=1;" parent="SvXkeg4vUTf-NOkOIB7w-29" vertex="1">
                    <mxGeometry x="680" width="92" height="40" as="geometry">
                        <mxRectangle width="92" height="40" as="alternateBounds"/>
                    </mxGeometry>
                </mxCell>
                <mxCell id="SvXkeg4vUTf-NOkOIB7w-36" style="shape=partialRectangle;html=1;whiteSpace=wrap;collapsible=0;dropTarget=0;pointerEvents=0;fillColor=none;top=0;left=0;bottom=0;right=0;points=[[0,0.5],[1,0.5]];portConstraint=eastwest;" parent="SvXkeg4vUTf-NOkOIB7w-0" vertex="1">
                    <mxGeometry y="200" width="772" height="40" as="geometry"/>
                </mxCell>
                <mxCell id="SvXkeg4vUTf-NOkOIB7w-37" value="05" style="shape=partialRectangle;html=1;whiteSpace=wrap;connectable=0;fillColor=none;top=0;left=0;bottom=0;right=0;overflow=hidden;pointerEvents=1;" parent="SvXkeg4vUTf-NOkOIB7w-36" vertex="1">
                    <mxGeometry width="114" height="40" as="geometry">
                        <mxRectangle width="114" height="40" as="alternateBounds"/>
                    </mxGeometry>
                </mxCell>
                <mxCell id="SvXkeg4vUTf-NOkOIB7w-38" value="Jupiter" style="shape=partialRectangle;html=1;whiteSpace=wrap;connectable=0;fillColor=none;top=0;left=0;bottom=0;right=0;overflow=hidden;pointerEvents=1;" parent="SvXkeg4vUTf-NOkOIB7w-36" vertex="1">
                    <mxGeometry x="114" width="111" height="40" as="geometry">
                        <mxRectangle width="111" height="40" as="alternateBounds"/>
                    </mxGeometry>
                </mxCell>
                <mxCell id="SvXkeg4vUTf-NOkOIB7w-39" value="317.83" style="shape=partialRectangle;html=1;whiteSpace=wrap;connectable=0;fillColor=none;top=0;left=0;bottom=0;right=0;overflow=hidden;pointerEvents=1;" parent="SvXkeg4vUTf-NOkOIB7w-36" vertex="1">
                    <mxGeometry x="225" width="135" height="40" as="geometry">
                        <mxRectangle width="135" height="40" as="alternateBounds"/>
                    </mxGeometry>
                </mxCell>
                <mxCell id="SvXkeg4vUTf-NOkOIB7w-40" value="80" style="shape=partialRectangle;html=1;whiteSpace=wrap;connectable=0;fillColor=none;top=0;left=0;bottom=0;right=0;overflow=hidden;pointerEvents=1;" parent="SvXkeg4vUTf-NOkOIB7w-36" vertex="1">
                    <mxGeometry x="360" width="120" height="40" as="geometry">
                        <mxRectangle width="120" height="40" as="alternateBounds"/>
                    </mxGeometry>
                </mxCell>
                <mxCell id="SvXkeg4vUTf-NOkOIB7w-41" value="false" style="shape=partialRectangle;html=1;whiteSpace=wrap;connectable=0;fillColor=none;top=0;left=0;bottom=0;right=0;overflow=hidden;pointerEvents=1;" parent="SvXkeg4vUTf-NOkOIB7w-36" vertex="1">
                    <mxGeometry x="480" width="108" height="40" as="geometry">
                        <mxRectangle width="108" height="40" as="alternateBounds"/>
                    </mxGeometry>
                </mxCell>
                <mxCell id="SvXkeg4vUTf-NOkOIB7w-42" value="true" style="shape=partialRectangle;html=1;whiteSpace=wrap;connectable=0;fillColor=none;top=0;left=0;bottom=0;right=0;overflow=hidden;pointerEvents=1;" parent="SvXkeg4vUTf-NOkOIB7w-36" vertex="1">
                    <mxGeometry x="588" width="92" height="40" as="geometry">
                        <mxRectangle width="92" height="40" as="alternateBounds"/>
                    </mxGeometry>
                </mxCell>
                <mxCell id="HL1FHidnzmdkd6o-oVcA-5" value="01" style="shape=partialRectangle;html=1;whiteSpace=wrap;connectable=0;fillColor=none;top=0;left=0;bottom=0;right=0;overflow=hidden;pointerEvents=1;" parent="SvXkeg4vUTf-NOkOIB7w-36" vertex="1">
                    <mxGeometry x="680" width="92" height="40" as="geometry">
                        <mxRectangle width="92" height="40" as="alternateBounds"/>
                    </mxGeometry>
                </mxCell>
                <mxCell id="SvXkeg4vUTf-NOkOIB7w-43" style="shape=partialRectangle;html=1;whiteSpace=wrap;collapsible=0;dropTarget=0;pointerEvents=0;fillColor=none;top=0;left=0;bottom=0;right=0;points=[[0,0.5],[1,0.5]];portConstraint=eastwest;" parent="SvXkeg4vUTf-NOkOIB7w-0" vertex="1">
                    <mxGeometry y="240" width="772" height="40" as="geometry"/>
                </mxCell>
                <mxCell id="SvXkeg4vUTf-NOkOIB7w-44" value="06" style="shape=partialRectangle;html=1;whiteSpace=wrap;connectable=0;fillColor=none;top=0;left=0;bottom=0;right=0;overflow=hidden;pointerEvents=1;" parent="SvXkeg4vUTf-NOkOIB7w-43" vertex="1">
                    <mxGeometry width="114" height="40" as="geometry">
                        <mxRectangle width="114" height="40" as="alternateBounds"/>
                    </mxGeometry>
                </mxCell>
                <mxCell id="SvXkeg4vUTf-NOkOIB7w-45" value="Saturn" style="shape=partialRectangle;html=1;whiteSpace=wrap;connectable=0;fillColor=none;top=0;left=0;bottom=0;right=0;overflow=hidden;pointerEvents=1;" parent="SvXkeg4vUTf-NOkOIB7w-43" vertex="1">
                    <mxGeometry x="114" width="111" height="40" as="geometry">
                        <mxRectangle width="111" height="40" as="alternateBounds"/>
                    </mxGeometry>
                </mxCell>
                <mxCell id="SvXkeg4vUTf-NOkOIB7w-46" value="95.16" style="shape=partialRectangle;html=1;whiteSpace=wrap;connectable=0;fillColor=none;top=0;left=0;bottom=0;right=0;overflow=hidden;pointerEvents=1;" parent="SvXkeg4vUTf-NOkOIB7w-43" vertex="1">
                    <mxGeometry x="225" width="135" height="40" as="geometry">
                        <mxRectangle width="135" height="40" as="alternateBounds"/>
                    </mxGeometry>
                </mxCell>
                <mxCell id="SvXkeg4vUTf-NOkOIB7w-47" value="83" style="shape=partialRectangle;html=1;whiteSpace=wrap;connectable=0;fillColor=none;top=0;left=0;bottom=0;right=0;overflow=hidden;pointerEvents=1;" parent="SvXkeg4vUTf-NOkOIB7w-43" vertex="1">
                    <mxGeometry x="360" width="120" height="40" as="geometry">
                        <mxRectangle width="120" height="40" as="alternateBounds"/>
                    </mxGeometry>
                </mxCell>
                <mxCell id="SvXkeg4vUTf-NOkOIB7w-48" value="false" style="shape=partialRectangle;html=1;whiteSpace=wrap;connectable=0;fillColor=none;top=0;left=0;bottom=0;right=0;overflow=hidden;pointerEvents=1;" parent="SvXkeg4vUTf-NOkOIB7w-43" vertex="1">
                    <mxGeometry x="480" width="108" height="40" as="geometry">
                        <mxRectangle width="108" height="40" as="alternateBounds"/>
                    </mxGeometry>
                </mxCell>
                <mxCell id="SvXkeg4vUTf-NOkOIB7w-49" value="true" style="shape=partialRectangle;html=1;whiteSpace=wrap;connectable=0;fillColor=none;top=0;left=0;bottom=0;right=0;overflow=hidden;pointerEvents=1;" parent="SvXkeg4vUTf-NOkOIB7w-43" vertex="1">
                    <mxGeometry x="588" width="92" height="40" as="geometry">
                        <mxRectangle width="92" height="40" as="alternateBounds"/>
                    </mxGeometry>
                </mxCell>
                <mxCell id="HL1FHidnzmdkd6o-oVcA-6" value="01" style="shape=partialRectangle;html=1;whiteSpace=wrap;connectable=0;fillColor=none;top=0;left=0;bottom=0;right=0;overflow=hidden;pointerEvents=1;" parent="SvXkeg4vUTf-NOkOIB7w-43" vertex="1">
                    <mxGeometry x="680" width="92" height="40" as="geometry">
                        <mxRectangle width="92" height="40" as="alternateBounds"/>
                    </mxGeometry>
                </mxCell>
                <mxCell id="HL1FHidnzmdkd6o-oVcA-55" style="shape=partialRectangle;html=1;whiteSpace=wrap;collapsible=0;dropTarget=0;pointerEvents=0;fillColor=none;top=0;left=0;bottom=0;right=0;points=[[0,0.5],[1,0.5]];portConstraint=eastwest;" parent="SvXkeg4vUTf-NOkOIB7w-0" vertex="1">
                    <mxGeometry y="280" width="772" height="40" as="geometry"/>
                </mxCell>
                <mxCell id="HL1FHidnzmdkd6o-oVcA-56" value="07" style="shape=partialRectangle;html=1;whiteSpace=wrap;connectable=0;fillColor=none;top=0;left=0;bottom=0;right=0;overflow=hidden;pointerEvents=1;" parent="HL1FHidnzmdkd6o-oVcA-55" vertex="1">
                    <mxGeometry width="114" height="40" as="geometry">
                        <mxRectangle width="114" height="40" as="alternateBounds"/>
                    </mxGeometry>
                </mxCell>
                <mxCell id="HL1FHidnzmdkd6o-oVcA-57" value="Uranus" style="shape=partialRectangle;html=1;whiteSpace=wrap;connectable=0;fillColor=none;top=0;left=0;bottom=0;right=0;overflow=hidden;pointerEvents=1;" parent="HL1FHidnzmdkd6o-oVcA-55" vertex="1">
                    <mxGeometry x="114" width="111" height="40" as="geometry">
                        <mxRectangle width="111" height="40" as="alternateBounds"/>
                    </mxGeometry>
                </mxCell>
                <mxCell id="HL1FHidnzmdkd6o-oVcA-58" value="14.54" style="shape=partialRectangle;html=1;whiteSpace=wrap;connectable=0;fillColor=none;top=0;left=0;bottom=0;right=0;overflow=hidden;pointerEvents=1;" parent="HL1FHidnzmdkd6o-oVcA-55" vertex="1">
                    <mxGeometry x="225" width="135" height="40" as="geometry">
                        <mxRectangle width="135" height="40" as="alternateBounds"/>
                    </mxGeometry>
                </mxCell>
                <mxCell id="HL1FHidnzmdkd6o-oVcA-59" value="27" style="shape=partialRectangle;html=1;whiteSpace=wrap;connectable=0;fillColor=none;top=0;left=0;bottom=0;right=0;overflow=hidden;pointerEvents=1;" parent="HL1FHidnzmdkd6o-oVcA-55" vertex="1">
                    <mxGeometry x="360" width="120" height="40" as="geometry">
                        <mxRectangle width="120" height="40" as="alternateBounds"/>
                    </mxGeometry>
                </mxCell>
                <mxCell id="HL1FHidnzmdkd6o-oVcA-60" value="false" style="shape=partialRectangle;html=1;whiteSpace=wrap;connectable=0;fillColor=none;top=0;left=0;bottom=0;right=0;overflow=hidden;pointerEvents=1;" parent="HL1FHidnzmdkd6o-oVcA-55" vertex="1">
                    <mxGeometry x="480" width="108" height="40" as="geometry">
                        <mxRectangle width="108" height="40" as="alternateBounds"/>
                    </mxGeometry>
                </mxCell>
                <mxCell id="HL1FHidnzmdkd6o-oVcA-61" value="true" style="shape=partialRectangle;html=1;whiteSpace=wrap;connectable=0;fillColor=none;top=0;left=0;bottom=0;right=0;overflow=hidden;pointerEvents=1;" parent="HL1FHidnzmdkd6o-oVcA-55" vertex="1">
                    <mxGeometry x="588" width="92" height="40" as="geometry">
                        <mxRectangle width="92" height="40" as="alternateBounds"/>
                    </mxGeometry>
                </mxCell>
                <mxCell id="HL1FHidnzmdkd6o-oVcA-62" value="01" style="shape=partialRectangle;html=1;whiteSpace=wrap;connectable=0;fillColor=none;top=0;left=0;bottom=0;right=0;overflow=hidden;pointerEvents=1;" parent="HL1FHidnzmdkd6o-oVcA-55" vertex="1">
                    <mxGeometry x="680" width="92" height="40" as="geometry">
                        <mxRectangle width="92" height="40" as="alternateBounds"/>
                    </mxGeometry>
                </mxCell>
                <mxCell id="HL1FHidnzmdkd6o-oVcA-47" style="shape=partialRectangle;html=1;whiteSpace=wrap;collapsible=0;dropTarget=0;pointerEvents=0;fillColor=none;top=0;left=0;bottom=0;right=0;points=[[0,0.5],[1,0.5]];portConstraint=eastwest;" parent="SvXkeg4vUTf-NOkOIB7w-0" vertex="1">
                    <mxGeometry y="320" width="772" height="40" as="geometry"/>
                </mxCell>
                <mxCell id="HL1FHidnzmdkd6o-oVcA-48" value="08" style="shape=partialRectangle;html=1;whiteSpace=wrap;connectable=0;fillColor=none;top=0;left=0;bottom=0;right=0;overflow=hidden;pointerEvents=1;" parent="HL1FHidnzmdkd6o-oVcA-47" vertex="1">
                    <mxGeometry width="114" height="40" as="geometry">
                        <mxRectangle width="114" height="40" as="alternateBounds"/>
                    </mxGeometry>
                </mxCell>
                <mxCell id="HL1FHidnzmdkd6o-oVcA-49" value="Neptune" style="shape=partialRectangle;html=1;whiteSpace=wrap;connectable=0;fillColor=none;top=0;left=0;bottom=0;right=0;overflow=hidden;pointerEvents=1;" parent="HL1FHidnzmdkd6o-oVcA-47" vertex="1">
                    <mxGeometry x="114" width="111" height="40" as="geometry">
                        <mxRectangle width="111" height="40" as="alternateBounds"/>
                    </mxGeometry>
                </mxCell>
                <mxCell id="HL1FHidnzmdkd6o-oVcA-50" value="17.15" style="shape=partialRectangle;html=1;whiteSpace=wrap;connectable=0;fillColor=none;top=0;left=0;bottom=0;right=0;overflow=hidden;pointerEvents=1;" parent="HL1FHidnzmdkd6o-oVcA-47" vertex="1">
                    <mxGeometry x="225" width="135" height="40" as="geometry">
                        <mxRectangle width="135" height="40" as="alternateBounds"/>
                    </mxGeometry>
                </mxCell>
                <mxCell id="HL1FHidnzmdkd6o-oVcA-51" value="14" style="shape=partialRectangle;html=1;whiteSpace=wrap;connectable=0;fillColor=none;top=0;left=0;bottom=0;right=0;overflow=hidden;pointerEvents=1;" parent="HL1FHidnzmdkd6o-oVcA-47" vertex="1">
                    <mxGeometry x="360" width="120" height="40" as="geometry">
                        <mxRectangle width="120" height="40" as="alternateBounds"/>
                    </mxGeometry>
                </mxCell>
                <mxCell id="HL1FHidnzmdkd6o-oVcA-52" value="false" style="shape=partialRectangle;html=1;whiteSpace=wrap;connectable=0;fillColor=none;top=0;left=0;bottom=0;right=0;overflow=hidden;pointerEvents=1;" parent="HL1FHidnzmdkd6o-oVcA-47" vertex="1">
                    <mxGeometry x="480" width="108" height="40" as="geometry">
                        <mxRectangle width="108" height="40" as="alternateBounds"/>
                    </mxGeometry>
                </mxCell>
                <mxCell id="HL1FHidnzmdkd6o-oVcA-53" value="true" style="shape=partialRectangle;html=1;whiteSpace=wrap;connectable=0;fillColor=none;top=0;left=0;bottom=0;right=0;overflow=hidden;pointerEvents=1;" parent="HL1FHidnzmdkd6o-oVcA-47" vertex="1">
                    <mxGeometry x="588" width="92" height="40" as="geometry">
                        <mxRectangle width="92" height="40" as="alternateBounds"/>
                    </mxGeometry>
                </mxCell>
                <mxCell id="HL1FHidnzmdkd6o-oVcA-54" value="01" style="shape=partialRectangle;html=1;whiteSpace=wrap;connectable=0;fillColor=none;top=0;left=0;bottom=0;right=0;overflow=hidden;pointerEvents=1;" parent="HL1FHidnzmdkd6o-oVcA-47" vertex="1">
                    <mxGeometry x="680" width="92" height="40" as="geometry">
                        <mxRectangle width="92" height="40" as="alternateBounds"/>
                    </mxGeometry>
                </mxCell>
                <mxCell id="HL1FHidnzmdkd6o-oVcA-39" style="shape=partialRectangle;html=1;whiteSpace=wrap;collapsible=0;dropTarget=0;pointerEvents=0;fillColor=none;top=0;left=0;bottom=0;right=0;points=[[0,0.5],[1,0.5]];portConstraint=eastwest;" parent="SvXkeg4vUTf-NOkOIB7w-0" vertex="1">
                    <mxGeometry y="360" width="772" height="40" as="geometry"/>
                </mxCell>
                <mxCell id="HL1FHidnzmdkd6o-oVcA-40" value="09" style="shape=partialRectangle;html=1;whiteSpace=wrap;connectable=0;fillColor=none;top=0;left=0;bottom=0;right=0;overflow=hidden;pointerEvents=1;" parent="HL1FHidnzmdkd6o-oVcA-39" vertex="1">
                    <mxGeometry width="114" height="40" as="geometry">
                        <mxRectangle width="114" height="40" as="alternateBounds"/>
                    </mxGeometry>
                </mxCell>
                <mxCell id="HL1FHidnzmdkd6o-oVcA-41" value="Ceres" style="shape=partialRectangle;html=1;whiteSpace=wrap;connectable=0;fillColor=none;top=0;left=0;bottom=0;right=0;overflow=hidden;pointerEvents=1;" parent="HL1FHidnzmdkd6o-oVcA-39" vertex="1">
                    <mxGeometry x="114" width="111" height="40" as="geometry">
                        <mxRectangle width="111" height="40" as="alternateBounds"/>
                    </mxGeometry>
                </mxCell>
                <mxCell id="HL1FHidnzmdkd6o-oVcA-42" value="0.00016" style="shape=partialRectangle;html=1;whiteSpace=wrap;connectable=0;fillColor=none;top=0;left=0;bottom=0;right=0;overflow=hidden;pointerEvents=1;" parent="HL1FHidnzmdkd6o-oVcA-39" vertex="1">
                    <mxGeometry x="225" width="135" height="40" as="geometry">
                        <mxRectangle width="135" height="40" as="alternateBounds"/>
                    </mxGeometry>
                </mxCell>
                <mxCell id="HL1FHidnzmdkd6o-oVcA-43" value="0" style="shape=partialRectangle;html=1;whiteSpace=wrap;connectable=0;fillColor=none;top=0;left=0;bottom=0;right=0;overflow=hidden;pointerEvents=1;" parent="HL1FHidnzmdkd6o-oVcA-39" vertex="1">
                    <mxGeometry x="360" width="120" height="40" as="geometry">
                        <mxRectangle width="120" height="40" as="alternateBounds"/>
                    </mxGeometry>
                </mxCell>
                <mxCell id="HL1FHidnzmdkd6o-oVcA-44" value="false" style="shape=partialRectangle;html=1;whiteSpace=wrap;connectable=0;fillColor=none;top=0;left=0;bottom=0;right=0;overflow=hidden;pointerEvents=1;" parent="HL1FHidnzmdkd6o-oVcA-39" vertex="1">
                    <mxGeometry x="480" width="108" height="40" as="geometry">
                        <mxRectangle width="108" height="40" as="alternateBounds"/>
                    </mxGeometry>
                </mxCell>
                <mxCell id="HL1FHidnzmdkd6o-oVcA-45" value="false" style="shape=partialRectangle;html=1;whiteSpace=wrap;connectable=0;fillColor=none;top=0;left=0;bottom=0;right=0;overflow=hidden;pointerEvents=1;" parent="HL1FHidnzmdkd6o-oVcA-39" vertex="1">
                    <mxGeometry x="588" width="92" height="40" as="geometry">
                        <mxRectangle width="92" height="40" as="alternateBounds"/>
                    </mxGeometry>
                </mxCell>
                <mxCell id="HL1FHidnzmdkd6o-oVcA-46" value="01" style="shape=partialRectangle;html=1;whiteSpace=wrap;connectable=0;fillColor=none;top=0;left=0;bottom=0;right=0;overflow=hidden;pointerEvents=1;" parent="HL1FHidnzmdkd6o-oVcA-39" vertex="1">
                    <mxGeometry x="680" width="92" height="40" as="geometry">
                        <mxRectangle width="92" height="40" as="alternateBounds"/>
                    </mxGeometry>
                </mxCell>
                <mxCell id="HL1FHidnzmdkd6o-oVcA-31" style="shape=partialRectangle;html=1;whiteSpace=wrap;collapsible=0;dropTarget=0;pointerEvents=0;fillColor=none;top=0;left=0;bottom=0;right=0;points=[[0,0.5],[1,0.5]];portConstraint=eastwest;" parent="SvXkeg4vUTf-NOkOIB7w-0" vertex="1">
                    <mxGeometry y="400" width="772" height="40" as="geometry"/>
                </mxCell>
                <mxCell id="HL1FHidnzmdkd6o-oVcA-32" value="10" style="shape=partialRectangle;html=1;whiteSpace=wrap;connectable=0;fillColor=none;top=0;left=0;bottom=0;right=0;overflow=hidden;pointerEvents=1;" parent="HL1FHidnzmdkd6o-oVcA-31" vertex="1">
                    <mxGeometry width="114" height="40" as="geometry">
                        <mxRectangle width="114" height="40" as="alternateBounds"/>
                    </mxGeometry>
                </mxCell>
                <mxCell id="HL1FHidnzmdkd6o-oVcA-33" value="Orcus" style="shape=partialRectangle;html=1;whiteSpace=wrap;connectable=0;fillColor=none;top=0;left=0;bottom=0;right=0;overflow=hidden;pointerEvents=1;" parent="HL1FHidnzmdkd6o-oVcA-31" vertex="1">
                    <mxGeometry x="114" width="111" height="40" as="geometry">
                        <mxRectangle width="111" height="40" as="alternateBounds"/>
                    </mxGeometry>
                </mxCell>
                <mxCell id="HL1FHidnzmdkd6o-oVcA-34" value="0.0001" style="shape=partialRectangle;html=1;whiteSpace=wrap;connectable=0;fillColor=none;top=0;left=0;bottom=0;right=0;overflow=hidden;pointerEvents=1;" parent="HL1FHidnzmdkd6o-oVcA-31" vertex="1">
                    <mxGeometry x="225" width="135" height="40" as="geometry">
                        <mxRectangle width="135" height="40" as="alternateBounds"/>
                    </mxGeometry>
                </mxCell>
                <mxCell id="HL1FHidnzmdkd6o-oVcA-35" value="1" style="shape=partialRectangle;html=1;whiteSpace=wrap;connectable=0;fillColor=none;top=0;left=0;bottom=0;right=0;overflow=hidden;pointerEvents=1;" parent="HL1FHidnzmdkd6o-oVcA-31" vertex="1">
                    <mxGeometry x="360" width="120" height="40" as="geometry">
                        <mxRectangle width="120" height="40" as="alternateBounds"/>
                    </mxGeometry>
                </mxCell>
                <mxCell id="HL1FHidnzmdkd6o-oVcA-36" value="false" style="shape=partialRectangle;html=1;whiteSpace=wrap;connectable=0;fillColor=none;top=0;left=0;bottom=0;right=0;overflow=hidden;pointerEvents=1;" parent="HL1FHidnzmdkd6o-oVcA-31" vertex="1">
                    <mxGeometry x="480" width="108" height="40" as="geometry">
                        <mxRectangle width="108" height="40" as="alternateBounds"/>
                    </mxGeometry>
                </mxCell>
                <mxCell id="HL1FHidnzmdkd6o-oVcA-37" value="NULL" style="shape=partialRectangle;html=1;whiteSpace=wrap;connectable=0;fillColor=none;top=0;left=0;bottom=0;right=0;overflow=hidden;pointerEvents=1;" parent="HL1FHidnzmdkd6o-oVcA-31" vertex="1">
                    <mxGeometry x="588" width="92" height="40" as="geometry">
                        <mxRectangle width="92" height="40" as="alternateBounds"/>
                    </mxGeometry>
                </mxCell>
                <mxCell id="HL1FHidnzmdkd6o-oVcA-38" value="01" style="shape=partialRectangle;html=1;whiteSpace=wrap;connectable=0;fillColor=none;top=0;left=0;bottom=0;right=0;overflow=hidden;pointerEvents=1;" parent="HL1FHidnzmdkd6o-oVcA-31" vertex="1">
                    <mxGeometry x="680" width="92" height="40" as="geometry">
                        <mxRectangle width="92" height="40" as="alternateBounds"/>
                    </mxGeometry>
                </mxCell>
                <mxCell id="HL1FHidnzmdkd6o-oVcA-23" style="shape=partialRectangle;html=1;whiteSpace=wrap;collapsible=0;dropTarget=0;pointerEvents=0;fillColor=none;top=0;left=0;bottom=0;right=0;points=[[0,0.5],[1,0.5]];portConstraint=eastwest;" parent="SvXkeg4vUTf-NOkOIB7w-0" vertex="1">
                    <mxGeometry y="440" width="772" height="40" as="geometry"/>
                </mxCell>
                <mxCell id="HL1FHidnzmdkd6o-oVcA-24" value="11" style="shape=partialRectangle;html=1;whiteSpace=wrap;connectable=0;fillColor=none;top=0;left=0;bottom=0;right=0;overflow=hidden;pointerEvents=1;" parent="HL1FHidnzmdkd6o-oVcA-23" vertex="1">
                    <mxGeometry width="114" height="40" as="geometry">
                        <mxRectangle width="114" height="40" as="alternateBounds"/>
                    </mxGeometry>
                </mxCell>
                <mxCell id="HL1FHidnzmdkd6o-oVcA-25" value="Pluto" style="shape=partialRectangle;html=1;whiteSpace=wrap;connectable=0;fillColor=none;top=0;left=0;bottom=0;right=0;overflow=hidden;pointerEvents=1;" parent="HL1FHidnzmdkd6o-oVcA-23" vertex="1">
                    <mxGeometry x="114" width="111" height="40" as="geometry">
                        <mxRectangle width="111" height="40" as="alternateBounds"/>
                    </mxGeometry>
                </mxCell>
                <mxCell id="HL1FHidnzmdkd6o-oVcA-26" value="0.0022" style="shape=partialRectangle;html=1;whiteSpace=wrap;connectable=0;fillColor=none;top=0;left=0;bottom=0;right=0;overflow=hidden;pointerEvents=1;" parent="HL1FHidnzmdkd6o-oVcA-23" vertex="1">
                    <mxGeometry x="225" width="135" height="40" as="geometry">
                        <mxRectangle width="135" height="40" as="alternateBounds"/>
                    </mxGeometry>
                </mxCell>
                <mxCell id="HL1FHidnzmdkd6o-oVcA-27" value="5" style="shape=partialRectangle;html=1;whiteSpace=wrap;connectable=0;fillColor=none;top=0;left=0;bottom=0;right=0;overflow=hidden;pointerEvents=1;" parent="HL1FHidnzmdkd6o-oVcA-23" vertex="1">
                    <mxGeometry x="360" width="120" height="40" as="geometry">
                        <mxRectangle width="120" height="40" as="alternateBounds"/>
                    </mxGeometry>
                </mxCell>
                <mxCell id="HL1FHidnzmdkd6o-oVcA-28" value="false" style="shape=partialRectangle;html=1;whiteSpace=wrap;connectable=0;fillColor=none;top=0;left=0;bottom=0;right=0;overflow=hidden;pointerEvents=1;" parent="HL1FHidnzmdkd6o-oVcA-23" vertex="1">
                    <mxGeometry x="480" width="108" height="40" as="geometry">
                        <mxRectangle width="108" height="40" as="alternateBounds"/>
                    </mxGeometry>
                </mxCell>
                <mxCell id="HL1FHidnzmdkd6o-oVcA-29" value="false" style="shape=partialRectangle;html=1;whiteSpace=wrap;connectable=0;fillColor=none;top=0;left=0;bottom=0;right=0;overflow=hidden;pointerEvents=1;" parent="HL1FHidnzmdkd6o-oVcA-23" vertex="1">
                    <mxGeometry x="588" width="92" height="40" as="geometry">
                        <mxRectangle width="92" height="40" as="alternateBounds"/>
                    </mxGeometry>
                </mxCell>
                <mxCell id="HL1FHidnzmdkd6o-oVcA-30" value="01" style="shape=partialRectangle;html=1;whiteSpace=wrap;connectable=0;fillColor=none;top=0;left=0;bottom=0;right=0;overflow=hidden;pointerEvents=1;" parent="HL1FHidnzmdkd6o-oVcA-23" vertex="1">
                    <mxGeometry x="680" width="92" height="40" as="geometry">
                        <mxRectangle width="92" height="40" as="alternateBounds"/>
                    </mxGeometry>
                </mxCell>
                <mxCell id="HL1FHidnzmdkd6o-oVcA-15" style="shape=partialRectangle;html=1;whiteSpace=wrap;collapsible=0;dropTarget=0;pointerEvents=0;fillColor=none;top=0;left=0;bottom=0;right=0;points=[[0,0.5],[1,0.5]];portConstraint=eastwest;" parent="SvXkeg4vUTf-NOkOIB7w-0" vertex="1">
                    <mxGeometry y="480" width="772" height="40" as="geometry"/>
                </mxCell>
                <mxCell id="HL1FHidnzmdkd6o-oVcA-16" value="12" style="shape=partialRectangle;html=1;whiteSpace=wrap;connectable=0;fillColor=none;top=0;left=0;bottom=0;right=0;overflow=hidden;pointerEvents=1;" parent="HL1FHidnzmdkd6o-oVcA-15" vertex="1">
                    <mxGeometry width="114" height="40" as="geometry">
                        <mxRectangle width="114" height="40" as="alternateBounds"/>
                    </mxGeometry>
                </mxCell>
                <mxCell id="HL1FHidnzmdkd6o-oVcA-17" value="Haumea" style="shape=partialRectangle;html=1;whiteSpace=wrap;connectable=0;fillColor=none;top=0;left=0;bottom=0;right=0;overflow=hidden;pointerEvents=1;" parent="HL1FHidnzmdkd6o-oVcA-15" vertex="1">
                    <mxGeometry x="114" width="111" height="40" as="geometry">
                        <mxRectangle width="111" height="40" as="alternateBounds"/>
                    </mxGeometry>
                </mxCell>
                <mxCell id="HL1FHidnzmdkd6o-oVcA-18" value="0.0007" style="shape=partialRectangle;html=1;whiteSpace=wrap;connectable=0;fillColor=none;top=0;left=0;bottom=0;right=0;overflow=hidden;pointerEvents=1;" parent="HL1FHidnzmdkd6o-oVcA-15" vertex="1">
                    <mxGeometry x="225" width="135" height="40" as="geometry">
                        <mxRectangle width="135" height="40" as="alternateBounds"/>
                    </mxGeometry>
                </mxCell>
                <mxCell id="HL1FHidnzmdkd6o-oVcA-19" value="2" style="shape=partialRectangle;html=1;whiteSpace=wrap;connectable=0;fillColor=none;top=0;left=0;bottom=0;right=0;overflow=hidden;pointerEvents=1;" parent="HL1FHidnzmdkd6o-oVcA-15" vertex="1">
                    <mxGeometry x="360" width="120" height="40" as="geometry">
                        <mxRectangle width="120" height="40" as="alternateBounds"/>
                    </mxGeometry>
                </mxCell>
                <mxCell id="HL1FHidnzmdkd6o-oVcA-20" value="false" style="shape=partialRectangle;html=1;whiteSpace=wrap;connectable=0;fillColor=none;top=0;left=0;bottom=0;right=0;overflow=hidden;pointerEvents=1;" parent="HL1FHidnzmdkd6o-oVcA-15" vertex="1">
                    <mxGeometry x="480" width="108" height="40" as="geometry">
                        <mxRectangle width="108" height="40" as="alternateBounds"/>
                    </mxGeometry>
                </mxCell>
                <mxCell id="HL1FHidnzmdkd6o-oVcA-21" value="true" style="shape=partialRectangle;html=1;whiteSpace=wrap;connectable=0;fillColor=none;top=0;left=0;bottom=0;right=0;overflow=hidden;pointerEvents=1;" parent="HL1FHidnzmdkd6o-oVcA-15" vertex="1">
                    <mxGeometry x="588" width="92" height="40" as="geometry">
                        <mxRectangle width="92" height="40" as="alternateBounds"/>
                    </mxGeometry>
                </mxCell>
                <mxCell id="HL1FHidnzmdkd6o-oVcA-22" value="01" style="shape=partialRectangle;html=1;whiteSpace=wrap;connectable=0;fillColor=none;top=0;left=0;bottom=0;right=0;overflow=hidden;pointerEvents=1;" parent="HL1FHidnzmdkd6o-oVcA-15" vertex="1">
                    <mxGeometry x="680" width="92" height="40" as="geometry">
                        <mxRectangle width="92" height="40" as="alternateBounds"/>
                    </mxGeometry>
                </mxCell>
            </root>
        </mxGraphModel>
    </diagram>
    <diagram id="lLv_IoHImAf4uGwkRpvO" name="Page-5">
        <mxGraphModel dx="1369" dy="790" grid="1" gridSize="10" guides="1" tooltips="1" connect="1" arrows="1" fold="1" page="1" pageScale="1" pageWidth="10000" pageHeight="10000" math="0" shadow="0">
            <root>
                <mxCell id="eumNH1EG5oX6Rlru4hxA-0"/>
                <mxCell id="eumNH1EG5oX6Rlru4hxA-1" parent="eumNH1EG5oX6Rlru4hxA-0"/>
                <mxCell id="yGlBext49l7w6g17v-zb-0" value="" style="shape=table;html=1;whiteSpace=wrap;startSize=0;container=1;collapsible=0;childLayout=tableLayout;" parent="eumNH1EG5oX6Rlru4hxA-1" vertex="1">
                    <mxGeometry x="42" y="80" width="630" height="840" as="geometry"/>
                </mxCell>
                <mxCell id="yGlBext49l7w6g17v-zb-1" value="" style="shape=partialRectangle;html=1;whiteSpace=wrap;collapsible=0;dropTarget=0;pointerEvents=0;fillColor=none;top=0;left=0;bottom=0;right=0;points=[[0,0.5],[1,0.5]];portConstraint=eastwest;" parent="yGlBext49l7w6g17v-zb-0" vertex="1">
                    <mxGeometry width="630" height="40" as="geometry"/>
                </mxCell>
                <mxCell id="yGlBext49l7w6g17v-zb-2" value="moon_id" style="shape=partialRectangle;html=1;whiteSpace=wrap;connectable=0;fillColor=none;top=0;left=0;bottom=0;right=0;overflow=hidden;pointerEvents=1;" parent="yGlBext49l7w6g17v-zb-1" vertex="1">
                    <mxGeometry width="114" height="40" as="geometry">
                        <mxRectangle width="114" height="40" as="alternateBounds"/>
                    </mxGeometry>
                </mxCell>
                <mxCell id="yGlBext49l7w6g17v-zb-3" value="moon_name" style="shape=partialRectangle;html=1;whiteSpace=wrap;connectable=0;fillColor=none;top=0;left=0;bottom=0;right=0;overflow=hidden;pointerEvents=1;" parent="yGlBext49l7w6g17v-zb-1" vertex="1">
                    <mxGeometry x="114" width="111" height="40" as="geometry">
                        <mxRectangle width="111" height="40" as="alternateBounds"/>
                    </mxGeometry>
                </mxCell>
                <mxCell id="yGlBext49l7w6g17v-zb-4" value="planet_id" style="shape=partialRectangle;html=1;whiteSpace=wrap;connectable=0;fillColor=none;top=0;left=0;bottom=0;right=0;overflow=hidden;pointerEvents=1;" parent="yGlBext49l7w6g17v-zb-1" vertex="1">
                    <mxGeometry x="225" width="135" height="40" as="geometry">
                        <mxRectangle width="135" height="40" as="alternateBounds"/>
                    </mxGeometry>
                </mxCell>
                <mxCell id="kANwTqz5MRBGScld4Lm_-21" value="weight" style="shape=partialRectangle;html=1;whiteSpace=wrap;connectable=0;fillColor=none;top=0;left=0;bottom=0;right=0;overflow=hidden;pointerEvents=1;" parent="yGlBext49l7w6g17v-zb-1" vertex="1">
                    <mxGeometry x="360" width="135" height="40" as="geometry">
                        <mxRectangle width="135" height="40" as="alternateBounds"/>
                    </mxGeometry>
                </mxCell>
                <mxCell id="kANwTqz5MRBGScld4Lm_-0" value="distance" style="shape=partialRectangle;html=1;whiteSpace=wrap;connectable=0;fillColor=none;top=0;left=0;bottom=0;right=0;overflow=hidden;pointerEvents=1;" parent="yGlBext49l7w6g17v-zb-1" vertex="1">
                    <mxGeometry x="495" width="135" height="40" as="geometry">
                        <mxRectangle width="135" height="40" as="alternateBounds"/>
                    </mxGeometry>
                </mxCell>
                <mxCell id="yGlBext49l7w6g17v-zb-9" value="" style="shape=partialRectangle;html=1;whiteSpace=wrap;collapsible=0;dropTarget=0;pointerEvents=0;fillColor=none;top=0;left=0;bottom=0;right=0;points=[[0,0.5],[1,0.5]];portConstraint=eastwest;" parent="yGlBext49l7w6g17v-zb-0" vertex="1">
                    <mxGeometry y="40" width="630" height="40" as="geometry"/>
                </mxCell>
                <mxCell id="yGlBext49l7w6g17v-zb-10" value="01" style="shape=partialRectangle;html=1;whiteSpace=wrap;connectable=0;fillColor=none;top=0;left=0;bottom=0;right=0;overflow=hidden;pointerEvents=1;" parent="yGlBext49l7w6g17v-zb-9" vertex="1">
                    <mxGeometry width="114" height="40" as="geometry">
                        <mxRectangle width="114" height="40" as="alternateBounds"/>
                    </mxGeometry>
                </mxCell>
                <mxCell id="yGlBext49l7w6g17v-zb-11" value="Earth I" style="shape=partialRectangle;html=1;whiteSpace=wrap;connectable=0;fillColor=none;top=0;left=0;bottom=0;right=0;overflow=hidden;pointerEvents=1;" parent="yGlBext49l7w6g17v-zb-9" vertex="1">
                    <mxGeometry x="114" width="111" height="40" as="geometry">
                        <mxRectangle width="111" height="40" as="alternateBounds"/>
                    </mxGeometry>
                </mxCell>
                <mxCell id="yGlBext49l7w6g17v-zb-12" value="03" style="shape=partialRectangle;html=1;whiteSpace=wrap;connectable=0;fillColor=none;top=0;left=0;bottom=0;right=0;overflow=hidden;pointerEvents=1;" parent="yGlBext49l7w6g17v-zb-9" vertex="1">
                    <mxGeometry x="225" width="135" height="40" as="geometry">
                        <mxRectangle width="135" height="40" as="alternateBounds"/>
                    </mxGeometry>
                </mxCell>
                <mxCell id="kANwTqz5MRBGScld4Lm_-22" style="shape=partialRectangle;html=1;whiteSpace=wrap;connectable=0;fillColor=none;top=0;left=0;bottom=0;right=0;overflow=hidden;pointerEvents=1;" parent="yGlBext49l7w6g17v-zb-9" vertex="1">
                    <mxGeometry x="360" width="135" height="40" as="geometry">
                        <mxRectangle width="135" height="40" as="alternateBounds"/>
                    </mxGeometry>
                </mxCell>
                <mxCell id="kANwTqz5MRBGScld4Lm_-1" style="shape=partialRectangle;html=1;whiteSpace=wrap;connectable=0;fillColor=none;top=0;left=0;bottom=0;right=0;overflow=hidden;pointerEvents=1;" parent="yGlBext49l7w6g17v-zb-9" vertex="1">
                    <mxGeometry x="495" width="135" height="40" as="geometry">
                        <mxRectangle width="135" height="40" as="alternateBounds"/>
                    </mxGeometry>
                </mxCell>
                <mxCell id="yGlBext49l7w6g17v-zb-17" value="" style="shape=partialRectangle;html=1;whiteSpace=wrap;collapsible=0;dropTarget=0;pointerEvents=0;fillColor=none;top=0;left=0;bottom=0;right=0;points=[[0,0.5],[1,0.5]];portConstraint=eastwest;" parent="yGlBext49l7w6g17v-zb-0" vertex="1">
                    <mxGeometry y="80" width="630" height="40" as="geometry"/>
                </mxCell>
                <mxCell id="yGlBext49l7w6g17v-zb-18" value="02" style="shape=partialRectangle;html=1;whiteSpace=wrap;connectable=0;fillColor=none;top=0;left=0;bottom=0;right=0;overflow=hidden;pointerEvents=1;" parent="yGlBext49l7w6g17v-zb-17" vertex="1">
                    <mxGeometry width="114" height="40" as="geometry">
                        <mxRectangle width="114" height="40" as="alternateBounds"/>
                    </mxGeometry>
                </mxCell>
                <mxCell id="yGlBext49l7w6g17v-zb-19" value="Phobos" style="shape=partialRectangle;html=1;whiteSpace=wrap;connectable=0;fillColor=none;top=0;left=0;bottom=0;right=0;overflow=hidden;pointerEvents=1;" parent="yGlBext49l7w6g17v-zb-17" vertex="1">
                    <mxGeometry x="114" width="111" height="40" as="geometry">
                        <mxRectangle width="111" height="40" as="alternateBounds"/>
                    </mxGeometry>
                </mxCell>
                <mxCell id="yGlBext49l7w6g17v-zb-20" value="04" style="shape=partialRectangle;html=1;whiteSpace=wrap;connectable=0;fillColor=none;top=0;left=0;bottom=0;right=0;overflow=hidden;pointerEvents=1;" parent="yGlBext49l7w6g17v-zb-17" vertex="1">
                    <mxGeometry x="225" width="135" height="40" as="geometry">
                        <mxRectangle width="135" height="40" as="alternateBounds"/>
                    </mxGeometry>
                </mxCell>
                <mxCell id="kANwTqz5MRBGScld4Lm_-23" style="shape=partialRectangle;html=1;whiteSpace=wrap;connectable=0;fillColor=none;top=0;left=0;bottom=0;right=0;overflow=hidden;pointerEvents=1;" parent="yGlBext49l7w6g17v-zb-17" vertex="1">
                    <mxGeometry x="360" width="135" height="40" as="geometry">
                        <mxRectangle width="135" height="40" as="alternateBounds"/>
                    </mxGeometry>
                </mxCell>
                <mxCell id="kANwTqz5MRBGScld4Lm_-2" style="shape=partialRectangle;html=1;whiteSpace=wrap;connectable=0;fillColor=none;top=0;left=0;bottom=0;right=0;overflow=hidden;pointerEvents=1;" parent="yGlBext49l7w6g17v-zb-17" vertex="1">
                    <mxGeometry x="495" width="135" height="40" as="geometry">
                        <mxRectangle width="135" height="40" as="alternateBounds"/>
                    </mxGeometry>
                </mxCell>
                <mxCell id="yGlBext49l7w6g17v-zb-25" style="shape=partialRectangle;html=1;whiteSpace=wrap;collapsible=0;dropTarget=0;pointerEvents=0;fillColor=none;top=0;left=0;bottom=0;right=0;points=[[0,0.5],[1,0.5]];portConstraint=eastwest;" parent="yGlBext49l7w6g17v-zb-0" vertex="1">
                    <mxGeometry y="120" width="630" height="40" as="geometry"/>
                </mxCell>
                <mxCell id="yGlBext49l7w6g17v-zb-26" value="03" style="shape=partialRectangle;html=1;whiteSpace=wrap;connectable=0;fillColor=none;top=0;left=0;bottom=0;right=0;overflow=hidden;pointerEvents=1;" parent="yGlBext49l7w6g17v-zb-25" vertex="1">
                    <mxGeometry width="114" height="40" as="geometry">
                        <mxRectangle width="114" height="40" as="alternateBounds"/>
                    </mxGeometry>
                </mxCell>
                <mxCell id="yGlBext49l7w6g17v-zb-27" value="Deimos" style="shape=partialRectangle;html=1;whiteSpace=wrap;connectable=0;fillColor=none;top=0;left=0;bottom=0;right=0;overflow=hidden;pointerEvents=1;" parent="yGlBext49l7w6g17v-zb-25" vertex="1">
                    <mxGeometry x="114" width="111" height="40" as="geometry">
                        <mxRectangle width="111" height="40" as="alternateBounds"/>
                    </mxGeometry>
                </mxCell>
                <mxCell id="yGlBext49l7w6g17v-zb-28" value="04" style="shape=partialRectangle;html=1;whiteSpace=wrap;connectable=0;fillColor=none;top=0;left=0;bottom=0;right=0;overflow=hidden;pointerEvents=1;" parent="yGlBext49l7w6g17v-zb-25" vertex="1">
                    <mxGeometry x="225" width="135" height="40" as="geometry">
                        <mxRectangle width="135" height="40" as="alternateBounds"/>
                    </mxGeometry>
                </mxCell>
                <mxCell id="kANwTqz5MRBGScld4Lm_-24" style="shape=partialRectangle;html=1;whiteSpace=wrap;connectable=0;fillColor=none;top=0;left=0;bottom=0;right=0;overflow=hidden;pointerEvents=1;" parent="yGlBext49l7w6g17v-zb-25" vertex="1">
                    <mxGeometry x="360" width="135" height="40" as="geometry">
                        <mxRectangle width="135" height="40" as="alternateBounds"/>
                    </mxGeometry>
                </mxCell>
                <mxCell id="kANwTqz5MRBGScld4Lm_-3" style="shape=partialRectangle;html=1;whiteSpace=wrap;connectable=0;fillColor=none;top=0;left=0;bottom=0;right=0;overflow=hidden;pointerEvents=1;" parent="yGlBext49l7w6g17v-zb-25" vertex="1">
                    <mxGeometry x="495" width="135" height="40" as="geometry">
                        <mxRectangle width="135" height="40" as="alternateBounds"/>
                    </mxGeometry>
                </mxCell>
                <mxCell id="yGlBext49l7w6g17v-zb-33" style="shape=partialRectangle;html=1;whiteSpace=wrap;collapsible=0;dropTarget=0;pointerEvents=0;fillColor=none;top=0;left=0;bottom=0;right=0;points=[[0,0.5],[1,0.5]];portConstraint=eastwest;" parent="yGlBext49l7w6g17v-zb-0" vertex="1">
                    <mxGeometry y="160" width="630" height="40" as="geometry"/>
                </mxCell>
                <mxCell id="yGlBext49l7w6g17v-zb-34" value="04" style="shape=partialRectangle;html=1;whiteSpace=wrap;connectable=0;fillColor=none;top=0;left=0;bottom=0;right=0;overflow=hidden;pointerEvents=1;" parent="yGlBext49l7w6g17v-zb-33" vertex="1">
                    <mxGeometry width="114" height="40" as="geometry">
                        <mxRectangle width="114" height="40" as="alternateBounds"/>
                    </mxGeometry>
                </mxCell>
                <mxCell id="yGlBext49l7w6g17v-zb-35" value="Io" style="shape=partialRectangle;html=1;whiteSpace=wrap;connectable=0;fillColor=none;top=0;left=0;bottom=0;right=0;overflow=hidden;pointerEvents=1;" parent="yGlBext49l7w6g17v-zb-33" vertex="1">
                    <mxGeometry x="114" width="111" height="40" as="geometry">
                        <mxRectangle width="111" height="40" as="alternateBounds"/>
                    </mxGeometry>
                </mxCell>
                <mxCell id="yGlBext49l7w6g17v-zb-36" value="05" style="shape=partialRectangle;html=1;whiteSpace=wrap;connectable=0;fillColor=none;top=0;left=0;bottom=0;right=0;overflow=hidden;pointerEvents=1;" parent="yGlBext49l7w6g17v-zb-33" vertex="1">
                    <mxGeometry x="225" width="135" height="40" as="geometry">
                        <mxRectangle width="135" height="40" as="alternateBounds"/>
                    </mxGeometry>
                </mxCell>
                <mxCell id="kANwTqz5MRBGScld4Lm_-25" style="shape=partialRectangle;html=1;whiteSpace=wrap;connectable=0;fillColor=none;top=0;left=0;bottom=0;right=0;overflow=hidden;pointerEvents=1;" parent="yGlBext49l7w6g17v-zb-33" vertex="1">
                    <mxGeometry x="360" width="135" height="40" as="geometry">
                        <mxRectangle width="135" height="40" as="alternateBounds"/>
                    </mxGeometry>
                </mxCell>
                <mxCell id="kANwTqz5MRBGScld4Lm_-4" style="shape=partialRectangle;html=1;whiteSpace=wrap;connectable=0;fillColor=none;top=0;left=0;bottom=0;right=0;overflow=hidden;pointerEvents=1;" parent="yGlBext49l7w6g17v-zb-33" vertex="1">
                    <mxGeometry x="495" width="135" height="40" as="geometry">
                        <mxRectangle width="135" height="40" as="alternateBounds"/>
                    </mxGeometry>
                </mxCell>
                <mxCell id="yGlBext49l7w6g17v-zb-41" style="shape=partialRectangle;html=1;whiteSpace=wrap;collapsible=0;dropTarget=0;pointerEvents=0;fillColor=none;top=0;left=0;bottom=0;right=0;points=[[0,0.5],[1,0.5]];portConstraint=eastwest;" parent="yGlBext49l7w6g17v-zb-0" vertex="1">
                    <mxGeometry y="200" width="630" height="40" as="geometry"/>
                </mxCell>
                <mxCell id="yGlBext49l7w6g17v-zb-42" value="05" style="shape=partialRectangle;html=1;whiteSpace=wrap;connectable=0;fillColor=none;top=0;left=0;bottom=0;right=0;overflow=hidden;pointerEvents=1;" parent="yGlBext49l7w6g17v-zb-41" vertex="1">
                    <mxGeometry width="114" height="40" as="geometry">
                        <mxRectangle width="114" height="40" as="alternateBounds"/>
                    </mxGeometry>
                </mxCell>
                <mxCell id="yGlBext49l7w6g17v-zb-43" value="Europa" style="shape=partialRectangle;html=1;whiteSpace=wrap;connectable=0;fillColor=none;top=0;left=0;bottom=0;right=0;overflow=hidden;pointerEvents=1;" parent="yGlBext49l7w6g17v-zb-41" vertex="1">
                    <mxGeometry x="114" width="111" height="40" as="geometry">
                        <mxRectangle width="111" height="40" as="alternateBounds"/>
                    </mxGeometry>
                </mxCell>
                <mxCell id="yGlBext49l7w6g17v-zb-44" value="05" style="shape=partialRectangle;html=1;whiteSpace=wrap;connectable=0;fillColor=none;top=0;left=0;bottom=0;right=0;overflow=hidden;pointerEvents=1;" parent="yGlBext49l7w6g17v-zb-41" vertex="1">
                    <mxGeometry x="225" width="135" height="40" as="geometry">
                        <mxRectangle width="135" height="40" as="alternateBounds"/>
                    </mxGeometry>
                </mxCell>
                <mxCell id="kANwTqz5MRBGScld4Lm_-26" style="shape=partialRectangle;html=1;whiteSpace=wrap;connectable=0;fillColor=none;top=0;left=0;bottom=0;right=0;overflow=hidden;pointerEvents=1;" parent="yGlBext49l7w6g17v-zb-41" vertex="1">
                    <mxGeometry x="360" width="135" height="40" as="geometry">
                        <mxRectangle width="135" height="40" as="alternateBounds"/>
                    </mxGeometry>
                </mxCell>
                <mxCell id="kANwTqz5MRBGScld4Lm_-5" style="shape=partialRectangle;html=1;whiteSpace=wrap;connectable=0;fillColor=none;top=0;left=0;bottom=0;right=0;overflow=hidden;pointerEvents=1;" parent="yGlBext49l7w6g17v-zb-41" vertex="1">
                    <mxGeometry x="495" width="135" height="40" as="geometry">
                        <mxRectangle width="135" height="40" as="alternateBounds"/>
                    </mxGeometry>
                </mxCell>
                <mxCell id="yGlBext49l7w6g17v-zb-49" style="shape=partialRectangle;html=1;whiteSpace=wrap;collapsible=0;dropTarget=0;pointerEvents=0;fillColor=none;top=0;left=0;bottom=0;right=0;points=[[0,0.5],[1,0.5]];portConstraint=eastwest;" parent="yGlBext49l7w6g17v-zb-0" vertex="1">
                    <mxGeometry y="240" width="630" height="40" as="geometry"/>
                </mxCell>
                <mxCell id="yGlBext49l7w6g17v-zb-50" value="06" style="shape=partialRectangle;html=1;whiteSpace=wrap;connectable=0;fillColor=none;top=0;left=0;bottom=0;right=0;overflow=hidden;pointerEvents=1;" parent="yGlBext49l7w6g17v-zb-49" vertex="1">
                    <mxGeometry width="114" height="40" as="geometry">
                        <mxRectangle width="114" height="40" as="alternateBounds"/>
                    </mxGeometry>
                </mxCell>
                <mxCell id="yGlBext49l7w6g17v-zb-51" value="Ganymede" style="shape=partialRectangle;html=1;whiteSpace=wrap;connectable=0;fillColor=none;top=0;left=0;bottom=0;right=0;overflow=hidden;pointerEvents=1;" parent="yGlBext49l7w6g17v-zb-49" vertex="1">
                    <mxGeometry x="114" width="111" height="40" as="geometry">
                        <mxRectangle width="111" height="40" as="alternateBounds"/>
                    </mxGeometry>
                </mxCell>
                <mxCell id="yGlBext49l7w6g17v-zb-52" value="05" style="shape=partialRectangle;html=1;whiteSpace=wrap;connectable=0;fillColor=none;top=0;left=0;bottom=0;right=0;overflow=hidden;pointerEvents=1;" parent="yGlBext49l7w6g17v-zb-49" vertex="1">
                    <mxGeometry x="225" width="135" height="40" as="geometry">
                        <mxRectangle width="135" height="40" as="alternateBounds"/>
                    </mxGeometry>
                </mxCell>
                <mxCell id="kANwTqz5MRBGScld4Lm_-27" style="shape=partialRectangle;html=1;whiteSpace=wrap;connectable=0;fillColor=none;top=0;left=0;bottom=0;right=0;overflow=hidden;pointerEvents=1;" parent="yGlBext49l7w6g17v-zb-49" vertex="1">
                    <mxGeometry x="360" width="135" height="40" as="geometry">
                        <mxRectangle width="135" height="40" as="alternateBounds"/>
                    </mxGeometry>
                </mxCell>
                <mxCell id="kANwTqz5MRBGScld4Lm_-6" style="shape=partialRectangle;html=1;whiteSpace=wrap;connectable=0;fillColor=none;top=0;left=0;bottom=0;right=0;overflow=hidden;pointerEvents=1;" parent="yGlBext49l7w6g17v-zb-49" vertex="1">
                    <mxGeometry x="495" width="135" height="40" as="geometry">
                        <mxRectangle width="135" height="40" as="alternateBounds"/>
                    </mxGeometry>
                </mxCell>
                <mxCell id="yGlBext49l7w6g17v-zb-57" style="shape=partialRectangle;html=1;whiteSpace=wrap;collapsible=0;dropTarget=0;pointerEvents=0;fillColor=none;top=0;left=0;bottom=0;right=0;points=[[0,0.5],[1,0.5]];portConstraint=eastwest;" parent="yGlBext49l7w6g17v-zb-0" vertex="1">
                    <mxGeometry y="280" width="630" height="40" as="geometry"/>
                </mxCell>
                <mxCell id="yGlBext49l7w6g17v-zb-58" value="07" style="shape=partialRectangle;html=1;whiteSpace=wrap;connectable=0;fillColor=none;top=0;left=0;bottom=0;right=0;overflow=hidden;pointerEvents=1;" parent="yGlBext49l7w6g17v-zb-57" vertex="1">
                    <mxGeometry width="114" height="40" as="geometry">
                        <mxRectangle width="114" height="40" as="alternateBounds"/>
                    </mxGeometry>
                </mxCell>
                <mxCell id="yGlBext49l7w6g17v-zb-59" value="Callisto" style="shape=partialRectangle;html=1;whiteSpace=wrap;connectable=0;fillColor=none;top=0;left=0;bottom=0;right=0;overflow=hidden;pointerEvents=1;" parent="yGlBext49l7w6g17v-zb-57" vertex="1">
                    <mxGeometry x="114" width="111" height="40" as="geometry">
                        <mxRectangle width="111" height="40" as="alternateBounds"/>
                    </mxGeometry>
                </mxCell>
                <mxCell id="yGlBext49l7w6g17v-zb-60" value="05" style="shape=partialRectangle;html=1;whiteSpace=wrap;connectable=0;fillColor=none;top=0;left=0;bottom=0;right=0;overflow=hidden;pointerEvents=1;" parent="yGlBext49l7w6g17v-zb-57" vertex="1">
                    <mxGeometry x="225" width="135" height="40" as="geometry">
                        <mxRectangle width="135" height="40" as="alternateBounds"/>
                    </mxGeometry>
                </mxCell>
                <mxCell id="kANwTqz5MRBGScld4Lm_-28" style="shape=partialRectangle;html=1;whiteSpace=wrap;connectable=0;fillColor=none;top=0;left=0;bottom=0;right=0;overflow=hidden;pointerEvents=1;" parent="yGlBext49l7w6g17v-zb-57" vertex="1">
                    <mxGeometry x="360" width="135" height="40" as="geometry">
                        <mxRectangle width="135" height="40" as="alternateBounds"/>
                    </mxGeometry>
                </mxCell>
                <mxCell id="kANwTqz5MRBGScld4Lm_-7" style="shape=partialRectangle;html=1;whiteSpace=wrap;connectable=0;fillColor=none;top=0;left=0;bottom=0;right=0;overflow=hidden;pointerEvents=1;" parent="yGlBext49l7w6g17v-zb-57" vertex="1">
                    <mxGeometry x="495" width="135" height="40" as="geometry">
                        <mxRectangle width="135" height="40" as="alternateBounds"/>
                    </mxGeometry>
                </mxCell>
                <mxCell id="yGlBext49l7w6g17v-zb-65" style="shape=partialRectangle;html=1;whiteSpace=wrap;collapsible=0;dropTarget=0;pointerEvents=0;fillColor=none;top=0;left=0;bottom=0;right=0;points=[[0,0.5],[1,0.5]];portConstraint=eastwest;" parent="yGlBext49l7w6g17v-zb-0" vertex="1">
                    <mxGeometry y="320" width="630" height="40" as="geometry"/>
                </mxCell>
                <mxCell id="yGlBext49l7w6g17v-zb-66" value="08" style="shape=partialRectangle;html=1;whiteSpace=wrap;connectable=0;fillColor=none;top=0;left=0;bottom=0;right=0;overflow=hidden;pointerEvents=1;" parent="yGlBext49l7w6g17v-zb-65" vertex="1">
                    <mxGeometry width="114" height="40" as="geometry">
                        <mxRectangle width="114" height="40" as="alternateBounds"/>
                    </mxGeometry>
                </mxCell>
                <mxCell id="yGlBext49l7w6g17v-zb-67" value="Rhea" style="shape=partialRectangle;html=1;whiteSpace=wrap;connectable=0;fillColor=none;top=0;left=0;bottom=0;right=0;overflow=hidden;pointerEvents=1;" parent="yGlBext49l7w6g17v-zb-65" vertex="1">
                    <mxGeometry x="114" width="111" height="40" as="geometry">
                        <mxRectangle width="111" height="40" as="alternateBounds"/>
                    </mxGeometry>
                </mxCell>
                <mxCell id="yGlBext49l7w6g17v-zb-68" value="06" style="shape=partialRectangle;html=1;whiteSpace=wrap;connectable=0;fillColor=none;top=0;left=0;bottom=0;right=0;overflow=hidden;pointerEvents=1;" parent="yGlBext49l7w6g17v-zb-65" vertex="1">
                    <mxGeometry x="225" width="135" height="40" as="geometry">
                        <mxRectangle width="135" height="40" as="alternateBounds"/>
                    </mxGeometry>
                </mxCell>
                <mxCell id="kANwTqz5MRBGScld4Lm_-29" style="shape=partialRectangle;html=1;whiteSpace=wrap;connectable=0;fillColor=none;top=0;left=0;bottom=0;right=0;overflow=hidden;pointerEvents=1;" parent="yGlBext49l7w6g17v-zb-65" vertex="1">
                    <mxGeometry x="360" width="135" height="40" as="geometry">
                        <mxRectangle width="135" height="40" as="alternateBounds"/>
                    </mxGeometry>
                </mxCell>
                <mxCell id="kANwTqz5MRBGScld4Lm_-8" style="shape=partialRectangle;html=1;whiteSpace=wrap;connectable=0;fillColor=none;top=0;left=0;bottom=0;right=0;overflow=hidden;pointerEvents=1;" parent="yGlBext49l7w6g17v-zb-65" vertex="1">
                    <mxGeometry x="495" width="135" height="40" as="geometry">
                        <mxRectangle width="135" height="40" as="alternateBounds"/>
                    </mxGeometry>
                </mxCell>
                <mxCell id="yGlBext49l7w6g17v-zb-73" style="shape=partialRectangle;html=1;whiteSpace=wrap;collapsible=0;dropTarget=0;pointerEvents=0;fillColor=none;top=0;left=0;bottom=0;right=0;points=[[0,0.5],[1,0.5]];portConstraint=eastwest;" parent="yGlBext49l7w6g17v-zb-0" vertex="1">
                    <mxGeometry y="360" width="630" height="40" as="geometry"/>
                </mxCell>
                <mxCell id="yGlBext49l7w6g17v-zb-74" value="09" style="shape=partialRectangle;html=1;whiteSpace=wrap;connectable=0;fillColor=none;top=0;left=0;bottom=0;right=0;overflow=hidden;pointerEvents=1;" parent="yGlBext49l7w6g17v-zb-73" vertex="1">
                    <mxGeometry width="114" height="40" as="geometry">
                        <mxRectangle width="114" height="40" as="alternateBounds"/>
                    </mxGeometry>
                </mxCell>
                <mxCell id="yGlBext49l7w6g17v-zb-75" value="Titania" style="shape=partialRectangle;html=1;whiteSpace=wrap;connectable=0;fillColor=none;top=0;left=0;bottom=0;right=0;overflow=hidden;pointerEvents=1;" parent="yGlBext49l7w6g17v-zb-73" vertex="1">
                    <mxGeometry x="114" width="111" height="40" as="geometry">
                        <mxRectangle width="111" height="40" as="alternateBounds"/>
                    </mxGeometry>
                </mxCell>
                <mxCell id="yGlBext49l7w6g17v-zb-76" value="07" style="shape=partialRectangle;html=1;whiteSpace=wrap;connectable=0;fillColor=none;top=0;left=0;bottom=0;right=0;overflow=hidden;pointerEvents=1;" parent="yGlBext49l7w6g17v-zb-73" vertex="1">
                    <mxGeometry x="225" width="135" height="40" as="geometry">
                        <mxRectangle width="135" height="40" as="alternateBounds"/>
                    </mxGeometry>
                </mxCell>
                <mxCell id="kANwTqz5MRBGScld4Lm_-30" style="shape=partialRectangle;html=1;whiteSpace=wrap;connectable=0;fillColor=none;top=0;left=0;bottom=0;right=0;overflow=hidden;pointerEvents=1;" parent="yGlBext49l7w6g17v-zb-73" vertex="1">
                    <mxGeometry x="360" width="135" height="40" as="geometry">
                        <mxRectangle width="135" height="40" as="alternateBounds"/>
                    </mxGeometry>
                </mxCell>
                <mxCell id="kANwTqz5MRBGScld4Lm_-9" style="shape=partialRectangle;html=1;whiteSpace=wrap;connectable=0;fillColor=none;top=0;left=0;bottom=0;right=0;overflow=hidden;pointerEvents=1;" parent="yGlBext49l7w6g17v-zb-73" vertex="1">
                    <mxGeometry x="495" width="135" height="40" as="geometry">
                        <mxRectangle width="135" height="40" as="alternateBounds"/>
                    </mxGeometry>
                </mxCell>
                <mxCell id="yGlBext49l7w6g17v-zb-81" style="shape=partialRectangle;html=1;whiteSpace=wrap;collapsible=0;dropTarget=0;pointerEvents=0;fillColor=none;top=0;left=0;bottom=0;right=0;points=[[0,0.5],[1,0.5]];portConstraint=eastwest;" parent="yGlBext49l7w6g17v-zb-0" vertex="1">
                    <mxGeometry y="400" width="630" height="40" as="geometry"/>
                </mxCell>
                <mxCell id="yGlBext49l7w6g17v-zb-82" value="10" style="shape=partialRectangle;html=1;whiteSpace=wrap;connectable=0;fillColor=none;top=0;left=0;bottom=0;right=0;overflow=hidden;pointerEvents=1;" parent="yGlBext49l7w6g17v-zb-81" vertex="1">
                    <mxGeometry width="114" height="40" as="geometry">
                        <mxRectangle width="114" height="40" as="alternateBounds"/>
                    </mxGeometry>
                </mxCell>
                <mxCell id="yGlBext49l7w6g17v-zb-83" value="Phoebe" style="shape=partialRectangle;html=1;whiteSpace=wrap;connectable=0;fillColor=none;top=0;left=0;bottom=0;right=0;overflow=hidden;pointerEvents=1;" parent="yGlBext49l7w6g17v-zb-81" vertex="1">
                    <mxGeometry x="114" width="111" height="40" as="geometry">
                        <mxRectangle width="111" height="40" as="alternateBounds"/>
                    </mxGeometry>
                </mxCell>
                <mxCell id="yGlBext49l7w6g17v-zb-84" value="08" style="shape=partialRectangle;html=1;whiteSpace=wrap;connectable=0;fillColor=none;top=0;left=0;bottom=0;right=0;overflow=hidden;pointerEvents=1;" parent="yGlBext49l7w6g17v-zb-81" vertex="1">
                    <mxGeometry x="225" width="135" height="40" as="geometry">
                        <mxRectangle width="135" height="40" as="alternateBounds"/>
                    </mxGeometry>
                </mxCell>
                <mxCell id="kANwTqz5MRBGScld4Lm_-31" style="shape=partialRectangle;html=1;whiteSpace=wrap;connectable=0;fillColor=none;top=0;left=0;bottom=0;right=0;overflow=hidden;pointerEvents=1;" parent="yGlBext49l7w6g17v-zb-81" vertex="1">
                    <mxGeometry x="360" width="135" height="40" as="geometry">
                        <mxRectangle width="135" height="40" as="alternateBounds"/>
                    </mxGeometry>
                </mxCell>
                <mxCell id="kANwTqz5MRBGScld4Lm_-10" style="shape=partialRectangle;html=1;whiteSpace=wrap;connectable=0;fillColor=none;top=0;left=0;bottom=0;right=0;overflow=hidden;pointerEvents=1;" parent="yGlBext49l7w6g17v-zb-81" vertex="1">
                    <mxGeometry x="495" width="135" height="40" as="geometry">
                        <mxRectangle width="135" height="40" as="alternateBounds"/>
                    </mxGeometry>
                </mxCell>
                <mxCell id="yGlBext49l7w6g17v-zb-89" style="shape=partialRectangle;html=1;whiteSpace=wrap;collapsible=0;dropTarget=0;pointerEvents=0;fillColor=none;top=0;left=0;bottom=0;right=0;points=[[0,0.5],[1,0.5]];portConstraint=eastwest;" parent="yGlBext49l7w6g17v-zb-0" vertex="1">
                    <mxGeometry y="440" width="630" height="40" as="geometry"/>
                </mxCell>
                <mxCell id="yGlBext49l7w6g17v-zb-90" value="11" style="shape=partialRectangle;html=1;whiteSpace=wrap;connectable=0;fillColor=none;top=0;left=0;bottom=0;right=0;overflow=hidden;pointerEvents=1;" parent="yGlBext49l7w6g17v-zb-89" vertex="1">
                    <mxGeometry width="114" height="40" as="geometry">
                        <mxRectangle width="114" height="40" as="alternateBounds"/>
                    </mxGeometry>
                </mxCell>
                <mxCell id="yGlBext49l7w6g17v-zb-91" value="Proteus" style="shape=partialRectangle;html=1;whiteSpace=wrap;connectable=0;fillColor=none;top=0;left=0;bottom=0;right=0;overflow=hidden;pointerEvents=1;" parent="yGlBext49l7w6g17v-zb-89" vertex="1">
                    <mxGeometry x="114" width="111" height="40" as="geometry">
                        <mxRectangle width="111" height="40" as="alternateBounds"/>
                    </mxGeometry>
                </mxCell>
                <mxCell id="yGlBext49l7w6g17v-zb-92" value="08" style="shape=partialRectangle;html=1;whiteSpace=wrap;connectable=0;fillColor=none;top=0;left=0;bottom=0;right=0;overflow=hidden;pointerEvents=1;" parent="yGlBext49l7w6g17v-zb-89" vertex="1">
                    <mxGeometry x="225" width="135" height="40" as="geometry">
                        <mxRectangle width="135" height="40" as="alternateBounds"/>
                    </mxGeometry>
                </mxCell>
                <mxCell id="kANwTqz5MRBGScld4Lm_-32" style="shape=partialRectangle;html=1;whiteSpace=wrap;connectable=0;fillColor=none;top=0;left=0;bottom=0;right=0;overflow=hidden;pointerEvents=1;" parent="yGlBext49l7w6g17v-zb-89" vertex="1">
                    <mxGeometry x="360" width="135" height="40" as="geometry">
                        <mxRectangle width="135" height="40" as="alternateBounds"/>
                    </mxGeometry>
                </mxCell>
                <mxCell id="kANwTqz5MRBGScld4Lm_-11" style="shape=partialRectangle;html=1;whiteSpace=wrap;connectable=0;fillColor=none;top=0;left=0;bottom=0;right=0;overflow=hidden;pointerEvents=1;" parent="yGlBext49l7w6g17v-zb-89" vertex="1">
                    <mxGeometry x="495" width="135" height="40" as="geometry">
                        <mxRectangle width="135" height="40" as="alternateBounds"/>
                    </mxGeometry>
                </mxCell>
                <mxCell id="yGlBext49l7w6g17v-zb-97" style="shape=partialRectangle;html=1;whiteSpace=wrap;collapsible=0;dropTarget=0;pointerEvents=0;fillColor=none;top=0;left=0;bottom=0;right=0;points=[[0,0.5],[1,0.5]];portConstraint=eastwest;" parent="yGlBext49l7w6g17v-zb-0" vertex="1">
                    <mxGeometry y="480" width="630" height="40" as="geometry"/>
                </mxCell>
                <mxCell id="yGlBext49l7w6g17v-zb-98" value="12" style="shape=partialRectangle;html=1;whiteSpace=wrap;connectable=0;fillColor=none;top=0;left=0;bottom=0;right=0;overflow=hidden;pointerEvents=1;" parent="yGlBext49l7w6g17v-zb-97" vertex="1">
                    <mxGeometry width="114" height="40" as="geometry">
                        <mxRectangle width="114" height="40" as="alternateBounds"/>
                    </mxGeometry>
                </mxCell>
                <mxCell id="yGlBext49l7w6g17v-zb-99" value="Psamathe" style="shape=partialRectangle;html=1;whiteSpace=wrap;connectable=0;fillColor=none;top=0;left=0;bottom=0;right=0;overflow=hidden;pointerEvents=1;" parent="yGlBext49l7w6g17v-zb-97" vertex="1">
                    <mxGeometry x="114" width="111" height="40" as="geometry">
                        <mxRectangle width="111" height="40" as="alternateBounds"/>
                    </mxGeometry>
                </mxCell>
                <mxCell id="yGlBext49l7w6g17v-zb-100" value="08" style="shape=partialRectangle;html=1;whiteSpace=wrap;connectable=0;fillColor=none;top=0;left=0;bottom=0;right=0;overflow=hidden;pointerEvents=1;" parent="yGlBext49l7w6g17v-zb-97" vertex="1">
                    <mxGeometry x="225" width="135" height="40" as="geometry">
                        <mxRectangle width="135" height="40" as="alternateBounds"/>
                    </mxGeometry>
                </mxCell>
                <mxCell id="kANwTqz5MRBGScld4Lm_-33" style="shape=partialRectangle;html=1;whiteSpace=wrap;connectable=0;fillColor=none;top=0;left=0;bottom=0;right=0;overflow=hidden;pointerEvents=1;" parent="yGlBext49l7w6g17v-zb-97" vertex="1">
                    <mxGeometry x="360" width="135" height="40" as="geometry">
                        <mxRectangle width="135" height="40" as="alternateBounds"/>
                    </mxGeometry>
                </mxCell>
                <mxCell id="kANwTqz5MRBGScld4Lm_-12" style="shape=partialRectangle;html=1;whiteSpace=wrap;connectable=0;fillColor=none;top=0;left=0;bottom=0;right=0;overflow=hidden;pointerEvents=1;" parent="yGlBext49l7w6g17v-zb-97" vertex="1">
                    <mxGeometry x="495" width="135" height="40" as="geometry">
                        <mxRectangle width="135" height="40" as="alternateBounds"/>
                    </mxGeometry>
                </mxCell>
                <mxCell id="IHAz4YcPb3wkUF_HslrG-28" style="shape=partialRectangle;html=1;whiteSpace=wrap;collapsible=0;dropTarget=0;pointerEvents=0;fillColor=none;top=0;left=0;bottom=0;right=0;points=[[0,0.5],[1,0.5]];portConstraint=eastwest;" parent="yGlBext49l7w6g17v-zb-0" vertex="1">
                    <mxGeometry y="520" width="630" height="40" as="geometry"/>
                </mxCell>
                <mxCell id="IHAz4YcPb3wkUF_HslrG-29" value="13" style="shape=partialRectangle;html=1;whiteSpace=wrap;connectable=0;fillColor=none;top=0;left=0;bottom=0;right=0;overflow=hidden;pointerEvents=1;" parent="IHAz4YcPb3wkUF_HslrG-28" vertex="1">
                    <mxGeometry width="114" height="40" as="geometry">
                        <mxRectangle width="114" height="40" as="alternateBounds"/>
                    </mxGeometry>
                </mxCell>
                <mxCell id="IHAz4YcPb3wkUF_HslrG-30" value="Neso" style="shape=partialRectangle;html=1;whiteSpace=wrap;connectable=0;fillColor=none;top=0;left=0;bottom=0;right=0;overflow=hidden;pointerEvents=1;" parent="IHAz4YcPb3wkUF_HslrG-28" vertex="1">
                    <mxGeometry x="114" width="111" height="40" as="geometry">
                        <mxRectangle width="111" height="40" as="alternateBounds"/>
                    </mxGeometry>
                </mxCell>
                <mxCell id="IHAz4YcPb3wkUF_HslrG-31" value="08" style="shape=partialRectangle;html=1;whiteSpace=wrap;connectable=0;fillColor=none;top=0;left=0;bottom=0;right=0;overflow=hidden;pointerEvents=1;" parent="IHAz4YcPb3wkUF_HslrG-28" vertex="1">
                    <mxGeometry x="225" width="135" height="40" as="geometry">
                        <mxRectangle width="135" height="40" as="alternateBounds"/>
                    </mxGeometry>
                </mxCell>
                <mxCell id="kANwTqz5MRBGScld4Lm_-34" style="shape=partialRectangle;html=1;whiteSpace=wrap;connectable=0;fillColor=none;top=0;left=0;bottom=0;right=0;overflow=hidden;pointerEvents=1;" parent="IHAz4YcPb3wkUF_HslrG-28" vertex="1">
                    <mxGeometry x="360" width="135" height="40" as="geometry">
                        <mxRectangle width="135" height="40" as="alternateBounds"/>
                    </mxGeometry>
                </mxCell>
                <mxCell id="kANwTqz5MRBGScld4Lm_-13" style="shape=partialRectangle;html=1;whiteSpace=wrap;connectable=0;fillColor=none;top=0;left=0;bottom=0;right=0;overflow=hidden;pointerEvents=1;" parent="IHAz4YcPb3wkUF_HslrG-28" vertex="1">
                    <mxGeometry x="495" width="135" height="40" as="geometry">
                        <mxRectangle width="135" height="40" as="alternateBounds"/>
                    </mxGeometry>
                </mxCell>
                <mxCell id="IHAz4YcPb3wkUF_HslrG-24" style="shape=partialRectangle;html=1;whiteSpace=wrap;collapsible=0;dropTarget=0;pointerEvents=0;fillColor=none;top=0;left=0;bottom=0;right=0;points=[[0,0.5],[1,0.5]];portConstraint=eastwest;" parent="yGlBext49l7w6g17v-zb-0" vertex="1">
                    <mxGeometry y="560" width="630" height="40" as="geometry"/>
                </mxCell>
                <mxCell id="IHAz4YcPb3wkUF_HslrG-25" value="14" style="shape=partialRectangle;html=1;whiteSpace=wrap;connectable=0;fillColor=none;top=0;left=0;bottom=0;right=0;overflow=hidden;pointerEvents=1;" parent="IHAz4YcPb3wkUF_HslrG-24" vertex="1">
                    <mxGeometry width="114" height="40" as="geometry">
                        <mxRectangle width="114" height="40" as="alternateBounds"/>
                    </mxGeometry>
                </mxCell>
                <mxCell id="IHAz4YcPb3wkUF_HslrG-26" value="Larissa" style="shape=partialRectangle;html=1;whiteSpace=wrap;connectable=0;fillColor=none;top=0;left=0;bottom=0;right=0;overflow=hidden;pointerEvents=1;" parent="IHAz4YcPb3wkUF_HslrG-24" vertex="1">
                    <mxGeometry x="114" width="111" height="40" as="geometry">
                        <mxRectangle width="111" height="40" as="alternateBounds"/>
                    </mxGeometry>
                </mxCell>
                <mxCell id="IHAz4YcPb3wkUF_HslrG-27" value="08" style="shape=partialRectangle;html=1;whiteSpace=wrap;connectable=0;fillColor=none;top=0;left=0;bottom=0;right=0;overflow=hidden;pointerEvents=1;" parent="IHAz4YcPb3wkUF_HslrG-24" vertex="1">
                    <mxGeometry x="225" width="135" height="40" as="geometry">
                        <mxRectangle width="135" height="40" as="alternateBounds"/>
                    </mxGeometry>
                </mxCell>
                <mxCell id="kANwTqz5MRBGScld4Lm_-35" style="shape=partialRectangle;html=1;whiteSpace=wrap;connectable=0;fillColor=none;top=0;left=0;bottom=0;right=0;overflow=hidden;pointerEvents=1;" parent="IHAz4YcPb3wkUF_HslrG-24" vertex="1">
                    <mxGeometry x="360" width="135" height="40" as="geometry">
                        <mxRectangle width="135" height="40" as="alternateBounds"/>
                    </mxGeometry>
                </mxCell>
                <mxCell id="kANwTqz5MRBGScld4Lm_-14" style="shape=partialRectangle;html=1;whiteSpace=wrap;connectable=0;fillColor=none;top=0;left=0;bottom=0;right=0;overflow=hidden;pointerEvents=1;" parent="IHAz4YcPb3wkUF_HslrG-24" vertex="1">
                    <mxGeometry x="495" width="135" height="40" as="geometry">
                        <mxRectangle width="135" height="40" as="alternateBounds"/>
                    </mxGeometry>
                </mxCell>
                <mxCell id="IHAz4YcPb3wkUF_HslrG-20" style="shape=partialRectangle;html=1;whiteSpace=wrap;collapsible=0;dropTarget=0;pointerEvents=0;fillColor=none;top=0;left=0;bottom=0;right=0;points=[[0,0.5],[1,0.5]];portConstraint=eastwest;" parent="yGlBext49l7w6g17v-zb-0" vertex="1">
                    <mxGeometry y="600" width="630" height="40" as="geometry"/>
                </mxCell>
                <mxCell id="IHAz4YcPb3wkUF_HslrG-21" value="15" style="shape=partialRectangle;html=1;whiteSpace=wrap;connectable=0;fillColor=none;top=0;left=0;bottom=0;right=0;overflow=hidden;pointerEvents=1;" parent="IHAz4YcPb3wkUF_HslrG-20" vertex="1">
                    <mxGeometry width="114" height="40" as="geometry">
                        <mxRectangle width="114" height="40" as="alternateBounds"/>
                    </mxGeometry>
                </mxCell>
                <mxCell id="IHAz4YcPb3wkUF_HslrG-22" value="Vanth" style="shape=partialRectangle;html=1;whiteSpace=wrap;connectable=0;fillColor=none;top=0;left=0;bottom=0;right=0;overflow=hidden;pointerEvents=1;" parent="IHAz4YcPb3wkUF_HslrG-20" vertex="1">
                    <mxGeometry x="114" width="111" height="40" as="geometry">
                        <mxRectangle width="111" height="40" as="alternateBounds"/>
                    </mxGeometry>
                </mxCell>
                <mxCell id="IHAz4YcPb3wkUF_HslrG-23" value="10" style="shape=partialRectangle;html=1;whiteSpace=wrap;connectable=0;fillColor=none;top=0;left=0;bottom=0;right=0;overflow=hidden;pointerEvents=1;" parent="IHAz4YcPb3wkUF_HslrG-20" vertex="1">
                    <mxGeometry x="225" width="135" height="40" as="geometry">
                        <mxRectangle width="135" height="40" as="alternateBounds"/>
                    </mxGeometry>
                </mxCell>
                <mxCell id="kANwTqz5MRBGScld4Lm_-36" style="shape=partialRectangle;html=1;whiteSpace=wrap;connectable=0;fillColor=none;top=0;left=0;bottom=0;right=0;overflow=hidden;pointerEvents=1;" parent="IHAz4YcPb3wkUF_HslrG-20" vertex="1">
                    <mxGeometry x="360" width="135" height="40" as="geometry">
                        <mxRectangle width="135" height="40" as="alternateBounds"/>
                    </mxGeometry>
                </mxCell>
                <mxCell id="kANwTqz5MRBGScld4Lm_-15" style="shape=partialRectangle;html=1;whiteSpace=wrap;connectable=0;fillColor=none;top=0;left=0;bottom=0;right=0;overflow=hidden;pointerEvents=1;" parent="IHAz4YcPb3wkUF_HslrG-20" vertex="1">
                    <mxGeometry x="495" width="135" height="40" as="geometry">
                        <mxRectangle width="135" height="40" as="alternateBounds"/>
                    </mxGeometry>
                </mxCell>
                <mxCell id="IHAz4YcPb3wkUF_HslrG-16" style="shape=partialRectangle;html=1;whiteSpace=wrap;collapsible=0;dropTarget=0;pointerEvents=0;fillColor=none;top=0;left=0;bottom=0;right=0;points=[[0,0.5],[1,0.5]];portConstraint=eastwest;" parent="yGlBext49l7w6g17v-zb-0" vertex="1">
                    <mxGeometry y="640" width="630" height="40" as="geometry"/>
                </mxCell>
                <mxCell id="IHAz4YcPb3wkUF_HslrG-17" value="16" style="shape=partialRectangle;html=1;whiteSpace=wrap;connectable=0;fillColor=none;top=0;left=0;bottom=0;right=0;overflow=hidden;pointerEvents=1;" parent="IHAz4YcPb3wkUF_HslrG-16" vertex="1">
                    <mxGeometry width="114" height="40" as="geometry">
                        <mxRectangle width="114" height="40" as="alternateBounds"/>
                    </mxGeometry>
                </mxCell>
                <mxCell id="IHAz4YcPb3wkUF_HslrG-18" value="Charon" style="shape=partialRectangle;html=1;whiteSpace=wrap;connectable=0;fillColor=none;top=0;left=0;bottom=0;right=0;overflow=hidden;pointerEvents=1;" parent="IHAz4YcPb3wkUF_HslrG-16" vertex="1">
                    <mxGeometry x="114" width="111" height="40" as="geometry">
                        <mxRectangle width="111" height="40" as="alternateBounds"/>
                    </mxGeometry>
                </mxCell>
                <mxCell id="IHAz4YcPb3wkUF_HslrG-19" value="11" style="shape=partialRectangle;html=1;whiteSpace=wrap;connectable=0;fillColor=none;top=0;left=0;bottom=0;right=0;overflow=hidden;pointerEvents=1;" parent="IHAz4YcPb3wkUF_HslrG-16" vertex="1">
                    <mxGeometry x="225" width="135" height="40" as="geometry">
                        <mxRectangle width="135" height="40" as="alternateBounds"/>
                    </mxGeometry>
                </mxCell>
                <mxCell id="kANwTqz5MRBGScld4Lm_-37" style="shape=partialRectangle;html=1;whiteSpace=wrap;connectable=0;fillColor=none;top=0;left=0;bottom=0;right=0;overflow=hidden;pointerEvents=1;" parent="IHAz4YcPb3wkUF_HslrG-16" vertex="1">
                    <mxGeometry x="360" width="135" height="40" as="geometry">
                        <mxRectangle width="135" height="40" as="alternateBounds"/>
                    </mxGeometry>
                </mxCell>
                <mxCell id="kANwTqz5MRBGScld4Lm_-16" style="shape=partialRectangle;html=1;whiteSpace=wrap;connectable=0;fillColor=none;top=0;left=0;bottom=0;right=0;overflow=hidden;pointerEvents=1;" parent="IHAz4YcPb3wkUF_HslrG-16" vertex="1">
                    <mxGeometry x="495" width="135" height="40" as="geometry">
                        <mxRectangle width="135" height="40" as="alternateBounds"/>
                    </mxGeometry>
                </mxCell>
                <mxCell id="IHAz4YcPb3wkUF_HslrG-12" style="shape=partialRectangle;html=1;whiteSpace=wrap;collapsible=0;dropTarget=0;pointerEvents=0;fillColor=none;top=0;left=0;bottom=0;right=0;points=[[0,0.5],[1,0.5]];portConstraint=eastwest;" parent="yGlBext49l7w6g17v-zb-0" vertex="1">
                    <mxGeometry y="680" width="630" height="40" as="geometry"/>
                </mxCell>
                <mxCell id="IHAz4YcPb3wkUF_HslrG-13" value="17" style="shape=partialRectangle;html=1;whiteSpace=wrap;connectable=0;fillColor=none;top=0;left=0;bottom=0;right=0;overflow=hidden;pointerEvents=1;" parent="IHAz4YcPb3wkUF_HslrG-12" vertex="1">
                    <mxGeometry width="114" height="40" as="geometry">
                        <mxRectangle width="114" height="40" as="alternateBounds"/>
                    </mxGeometry>
                </mxCell>
                <mxCell id="IHAz4YcPb3wkUF_HslrG-14" value="Styx" style="shape=partialRectangle;html=1;whiteSpace=wrap;connectable=0;fillColor=none;top=0;left=0;bottom=0;right=0;overflow=hidden;pointerEvents=1;" parent="IHAz4YcPb3wkUF_HslrG-12" vertex="1">
                    <mxGeometry x="114" width="111" height="40" as="geometry">
                        <mxRectangle width="111" height="40" as="alternateBounds"/>
                    </mxGeometry>
                </mxCell>
                <mxCell id="IHAz4YcPb3wkUF_HslrG-15" value="11" style="shape=partialRectangle;html=1;whiteSpace=wrap;connectable=0;fillColor=none;top=0;left=0;bottom=0;right=0;overflow=hidden;pointerEvents=1;" parent="IHAz4YcPb3wkUF_HslrG-12" vertex="1">
                    <mxGeometry x="225" width="135" height="40" as="geometry">
                        <mxRectangle width="135" height="40" as="alternateBounds"/>
                    </mxGeometry>
                </mxCell>
                <mxCell id="kANwTqz5MRBGScld4Lm_-38" style="shape=partialRectangle;html=1;whiteSpace=wrap;connectable=0;fillColor=none;top=0;left=0;bottom=0;right=0;overflow=hidden;pointerEvents=1;" parent="IHAz4YcPb3wkUF_HslrG-12" vertex="1">
                    <mxGeometry x="360" width="135" height="40" as="geometry">
                        <mxRectangle width="135" height="40" as="alternateBounds"/>
                    </mxGeometry>
                </mxCell>
                <mxCell id="kANwTqz5MRBGScld4Lm_-17" style="shape=partialRectangle;html=1;whiteSpace=wrap;connectable=0;fillColor=none;top=0;left=0;bottom=0;right=0;overflow=hidden;pointerEvents=1;" parent="IHAz4YcPb3wkUF_HslrG-12" vertex="1">
                    <mxGeometry x="495" width="135" height="40" as="geometry">
                        <mxRectangle width="135" height="40" as="alternateBounds"/>
                    </mxGeometry>
                </mxCell>
                <mxCell id="IHAz4YcPb3wkUF_HslrG-8" style="shape=partialRectangle;html=1;whiteSpace=wrap;collapsible=0;dropTarget=0;pointerEvents=0;fillColor=none;top=0;left=0;bottom=0;right=0;points=[[0,0.5],[1,0.5]];portConstraint=eastwest;" parent="yGlBext49l7w6g17v-zb-0" vertex="1">
                    <mxGeometry y="720" width="630" height="40" as="geometry"/>
                </mxCell>
                <mxCell id="IHAz4YcPb3wkUF_HslrG-9" value="18" style="shape=partialRectangle;html=1;whiteSpace=wrap;connectable=0;fillColor=none;top=0;left=0;bottom=0;right=0;overflow=hidden;pointerEvents=1;" parent="IHAz4YcPb3wkUF_HslrG-8" vertex="1">
                    <mxGeometry width="114" height="40" as="geometry">
                        <mxRectangle width="114" height="40" as="alternateBounds"/>
                    </mxGeometry>
                </mxCell>
                <mxCell id="IHAz4YcPb3wkUF_HslrG-10" value="Nix" style="shape=partialRectangle;html=1;whiteSpace=wrap;connectable=0;fillColor=none;top=0;left=0;bottom=0;right=0;overflow=hidden;pointerEvents=1;" parent="IHAz4YcPb3wkUF_HslrG-8" vertex="1">
                    <mxGeometry x="114" width="111" height="40" as="geometry">
                        <mxRectangle width="111" height="40" as="alternateBounds"/>
                    </mxGeometry>
                </mxCell>
                <mxCell id="IHAz4YcPb3wkUF_HslrG-11" value="11" style="shape=partialRectangle;html=1;whiteSpace=wrap;connectable=0;fillColor=none;top=0;left=0;bottom=0;right=0;overflow=hidden;pointerEvents=1;" parent="IHAz4YcPb3wkUF_HslrG-8" vertex="1">
                    <mxGeometry x="225" width="135" height="40" as="geometry">
                        <mxRectangle width="135" height="40" as="alternateBounds"/>
                    </mxGeometry>
                </mxCell>
                <mxCell id="kANwTqz5MRBGScld4Lm_-39" style="shape=partialRectangle;html=1;whiteSpace=wrap;connectable=0;fillColor=none;top=0;left=0;bottom=0;right=0;overflow=hidden;pointerEvents=1;" parent="IHAz4YcPb3wkUF_HslrG-8" vertex="1">
                    <mxGeometry x="360" width="135" height="40" as="geometry">
                        <mxRectangle width="135" height="40" as="alternateBounds"/>
                    </mxGeometry>
                </mxCell>
                <mxCell id="kANwTqz5MRBGScld4Lm_-18" style="shape=partialRectangle;html=1;whiteSpace=wrap;connectable=0;fillColor=none;top=0;left=0;bottom=0;right=0;overflow=hidden;pointerEvents=1;" parent="IHAz4YcPb3wkUF_HslrG-8" vertex="1">
                    <mxGeometry x="495" width="135" height="40" as="geometry">
                        <mxRectangle width="135" height="40" as="alternateBounds"/>
                    </mxGeometry>
                </mxCell>
                <mxCell id="IHAz4YcPb3wkUF_HslrG-4" style="shape=partialRectangle;html=1;whiteSpace=wrap;collapsible=0;dropTarget=0;pointerEvents=0;fillColor=none;top=0;left=0;bottom=0;right=0;points=[[0,0.5],[1,0.5]];portConstraint=eastwest;" parent="yGlBext49l7w6g17v-zb-0" vertex="1">
                    <mxGeometry y="760" width="630" height="40" as="geometry"/>
                </mxCell>
                <mxCell id="IHAz4YcPb3wkUF_HslrG-5" value="19" style="shape=partialRectangle;html=1;whiteSpace=wrap;connectable=0;fillColor=none;top=0;left=0;bottom=0;right=0;overflow=hidden;pointerEvents=1;" parent="IHAz4YcPb3wkUF_HslrG-4" vertex="1">
                    <mxGeometry width="114" height="40" as="geometry">
                        <mxRectangle width="114" height="40" as="alternateBounds"/>
                    </mxGeometry>
                </mxCell>
                <mxCell id="IHAz4YcPb3wkUF_HslrG-6" value="Namaka" style="shape=partialRectangle;html=1;whiteSpace=wrap;connectable=0;fillColor=none;top=0;left=0;bottom=0;right=0;overflow=hidden;pointerEvents=1;" parent="IHAz4YcPb3wkUF_HslrG-4" vertex="1">
                    <mxGeometry x="114" width="111" height="40" as="geometry">
                        <mxRectangle width="111" height="40" as="alternateBounds"/>
                    </mxGeometry>
                </mxCell>
                <mxCell id="IHAz4YcPb3wkUF_HslrG-7" value="12" style="shape=partialRectangle;html=1;whiteSpace=wrap;connectable=0;fillColor=none;top=0;left=0;bottom=0;right=0;overflow=hidden;pointerEvents=1;" parent="IHAz4YcPb3wkUF_HslrG-4" vertex="1">
                    <mxGeometry x="225" width="135" height="40" as="geometry">
                        <mxRectangle width="135" height="40" as="alternateBounds"/>
                    </mxGeometry>
                </mxCell>
                <mxCell id="kANwTqz5MRBGScld4Lm_-40" style="shape=partialRectangle;html=1;whiteSpace=wrap;connectable=0;fillColor=none;top=0;left=0;bottom=0;right=0;overflow=hidden;pointerEvents=1;" parent="IHAz4YcPb3wkUF_HslrG-4" vertex="1">
                    <mxGeometry x="360" width="135" height="40" as="geometry">
                        <mxRectangle width="135" height="40" as="alternateBounds"/>
                    </mxGeometry>
                </mxCell>
                <mxCell id="kANwTqz5MRBGScld4Lm_-19" style="shape=partialRectangle;html=1;whiteSpace=wrap;connectable=0;fillColor=none;top=0;left=0;bottom=0;right=0;overflow=hidden;pointerEvents=1;" parent="IHAz4YcPb3wkUF_HslrG-4" vertex="1">
                    <mxGeometry x="495" width="135" height="40" as="geometry">
                        <mxRectangle width="135" height="40" as="alternateBounds"/>
                    </mxGeometry>
                </mxCell>
                <mxCell id="IHAz4YcPb3wkUF_HslrG-0" style="shape=partialRectangle;html=1;whiteSpace=wrap;collapsible=0;dropTarget=0;pointerEvents=0;fillColor=none;top=0;left=0;bottom=0;right=0;points=[[0,0.5],[1,0.5]];portConstraint=eastwest;" parent="yGlBext49l7w6g17v-zb-0" vertex="1">
                    <mxGeometry y="800" width="630" height="40" as="geometry"/>
                </mxCell>
                <mxCell id="IHAz4YcPb3wkUF_HslrG-1" value="20" style="shape=partialRectangle;html=1;whiteSpace=wrap;connectable=0;fillColor=none;top=0;left=0;bottom=0;right=0;overflow=hidden;pointerEvents=1;" parent="IHAz4YcPb3wkUF_HslrG-0" vertex="1">
                    <mxGeometry width="114" height="40" as="geometry">
                        <mxRectangle width="114" height="40" as="alternateBounds"/>
                    </mxGeometry>
                </mxCell>
                <mxCell id="IHAz4YcPb3wkUF_HslrG-2" value="Hi'iaka" style="shape=partialRectangle;html=1;whiteSpace=wrap;connectable=0;fillColor=none;top=0;left=0;bottom=0;right=0;overflow=hidden;pointerEvents=1;" parent="IHAz4YcPb3wkUF_HslrG-0" vertex="1">
                    <mxGeometry x="114" width="111" height="40" as="geometry">
                        <mxRectangle width="111" height="40" as="alternateBounds"/>
                    </mxGeometry>
                </mxCell>
                <mxCell id="IHAz4YcPb3wkUF_HslrG-3" value="12" style="shape=partialRectangle;html=1;whiteSpace=wrap;connectable=0;fillColor=none;top=0;left=0;bottom=0;right=0;overflow=hidden;pointerEvents=1;" parent="IHAz4YcPb3wkUF_HslrG-0" vertex="1">
                    <mxGeometry x="225" width="135" height="40" as="geometry">
                        <mxRectangle width="135" height="40" as="alternateBounds"/>
                    </mxGeometry>
                </mxCell>
                <mxCell id="kANwTqz5MRBGScld4Lm_-41" style="shape=partialRectangle;html=1;whiteSpace=wrap;connectable=0;fillColor=none;top=0;left=0;bottom=0;right=0;overflow=hidden;pointerEvents=1;" parent="IHAz4YcPb3wkUF_HslrG-0" vertex="1">
                    <mxGeometry x="360" width="135" height="40" as="geometry">
                        <mxRectangle width="135" height="40" as="alternateBounds"/>
                    </mxGeometry>
                </mxCell>
                <mxCell id="kANwTqz5MRBGScld4Lm_-20" style="shape=partialRectangle;html=1;whiteSpace=wrap;connectable=0;fillColor=none;top=0;left=0;bottom=0;right=0;overflow=hidden;pointerEvents=1;" parent="IHAz4YcPb3wkUF_HslrG-0" vertex="1">
                    <mxGeometry x="495" width="135" height="40" as="geometry">
                        <mxRectangle width="135" height="40" as="alternateBounds"/>
                    </mxGeometry>
                </mxCell>
            </root>
        </mxGraphModel>
    </diagram>
    <diagram id="jIU8u8wqPzR_nvSukuZ_" name="Page-6">
        <mxGraphModel dx="1369" dy="790" grid="1" gridSize="10" guides="1" tooltips="1" connect="1" arrows="1" fold="1" page="1" pageScale="1" pageWidth="10000" pageHeight="10000" math="0" shadow="0">
            <root>
                <mxCell id="gnStx0gXveTgIEbWaK1a-0"/>
                <mxCell id="gnStx0gXveTgIEbWaK1a-1" parent="gnStx0gXveTgIEbWaK1a-0"/>
                <mxCell id="gnStx0gXveTgIEbWaK1a-2" value="" style="shape=table;html=1;whiteSpace=wrap;startSize=0;container=1;collapsible=0;childLayout=tableLayout;" parent="gnStx0gXveTgIEbWaK1a-1" vertex="1">
                    <mxGeometry x="240" y="180" width="800" height="343" as="geometry"/>
                </mxCell>
                <mxCell id="gnStx0gXveTgIEbWaK1a-3" value="" style="shape=partialRectangle;html=1;whiteSpace=wrap;collapsible=0;dropTarget=0;pointerEvents=0;fillColor=none;top=0;left=0;bottom=0;right=0;points=[[0,0.5],[1,0.5]];portConstraint=eastwest;" parent="gnStx0gXveTgIEbWaK1a-2" vertex="1">
                    <mxGeometry width="800" height="87" as="geometry"/>
                </mxCell>
                <mxCell id="gnStx0gXveTgIEbWaK1a-4" value="planet_moon_id" style="shape=partialRectangle;html=1;whiteSpace=wrap;connectable=0;fillColor=none;top=0;left=0;bottom=0;right=0;overflow=hidden;pointerEvents=1;" parent="gnStx0gXveTgIEbWaK1a-3" vertex="1">
                    <mxGeometry width="200" height="87" as="geometry">
                        <mxRectangle width="200" height="87" as="alternateBounds"/>
                    </mxGeometry>
                </mxCell>
                <mxCell id="gnStx0gXveTgIEbWaK1a-5" value="planet_id" style="shape=partialRectangle;html=1;whiteSpace=wrap;connectable=0;fillColor=none;top=0;left=0;bottom=0;right=0;overflow=hidden;pointerEvents=1;" parent="gnStx0gXveTgIEbWaK1a-3" vertex="1">
                    <mxGeometry x="200" width="200" height="87" as="geometry">
                        <mxRectangle width="200" height="87" as="alternateBounds"/>
                    </mxGeometry>
                </mxCell>
                <mxCell id="gnStx0gXveTgIEbWaK1a-6" value="moon_id" style="shape=partialRectangle;html=1;whiteSpace=wrap;connectable=0;fillColor=none;top=0;left=0;bottom=0;right=0;overflow=hidden;pointerEvents=1;" parent="gnStx0gXveTgIEbWaK1a-3" vertex="1">
                    <mxGeometry x="400" width="200" height="87" as="geometry">
                        <mxRectangle width="200" height="87" as="alternateBounds"/>
                    </mxGeometry>
                </mxCell>
                <mxCell id="3bch37l-b7266UPYf4L3-0" value="name" style="shape=partialRectangle;html=1;whiteSpace=wrap;connectable=0;fillColor=none;top=0;left=0;bottom=0;right=0;overflow=hidden;pointerEvents=1;" parent="gnStx0gXveTgIEbWaK1a-3" vertex="1">
                    <mxGeometry x="600" width="200" height="87" as="geometry">
                        <mxRectangle width="200" height="87" as="alternateBounds"/>
                    </mxGeometry>
                </mxCell>
                <mxCell id="3bch37l-b7266UPYf4L3-3" style="shape=partialRectangle;html=1;whiteSpace=wrap;collapsible=0;dropTarget=0;pointerEvents=0;fillColor=none;top=0;left=0;bottom=0;right=0;points=[[0,0.5],[1,0.5]];portConstraint=eastwest;" parent="gnStx0gXveTgIEbWaK1a-2" vertex="1">
                    <mxGeometry y="87" width="800" height="83" as="geometry"/>
                </mxCell>
                <mxCell id="3bch37l-b7266UPYf4L3-4" value="01" style="shape=partialRectangle;html=1;whiteSpace=wrap;connectable=0;fillColor=none;top=0;left=0;bottom=0;right=0;overflow=hidden;pointerEvents=1;" parent="3bch37l-b7266UPYf4L3-3" vertex="1">
                    <mxGeometry width="200" height="83" as="geometry">
                        <mxRectangle width="200" height="83" as="alternateBounds"/>
                    </mxGeometry>
                </mxCell>
                <mxCell id="3bch37l-b7266UPYf4L3-5" value="03" style="shape=partialRectangle;html=1;whiteSpace=wrap;connectable=0;fillColor=none;top=0;left=0;bottom=0;right=0;overflow=hidden;pointerEvents=1;" parent="3bch37l-b7266UPYf4L3-3" vertex="1">
                    <mxGeometry x="200" width="200" height="83" as="geometry">
                        <mxRectangle width="200" height="83" as="alternateBounds"/>
                    </mxGeometry>
                </mxCell>
                <mxCell id="3bch37l-b7266UPYf4L3-6" value="01" style="shape=partialRectangle;html=1;whiteSpace=wrap;connectable=0;fillColor=none;top=0;left=0;bottom=0;right=0;overflow=hidden;pointerEvents=1;" parent="3bch37l-b7266UPYf4L3-3" vertex="1">
                    <mxGeometry x="400" width="200" height="83" as="geometry">
                        <mxRectangle width="200" height="83" as="alternateBounds"/>
                    </mxGeometry>
                </mxCell>
                <mxCell id="3bch37l-b7266UPYf4L3-7" value="Erath" style="shape=partialRectangle;html=1;whiteSpace=wrap;connectable=0;fillColor=none;top=0;left=0;bottom=0;right=0;overflow=hidden;pointerEvents=1;" parent="3bch37l-b7266UPYf4L3-3" vertex="1">
                    <mxGeometry x="600" width="200" height="83" as="geometry">
                        <mxRectangle width="200" height="83" as="alternateBounds"/>
                    </mxGeometry>
                </mxCell>
                <mxCell id="gnStx0gXveTgIEbWaK1a-7" value="" style="shape=partialRectangle;html=1;whiteSpace=wrap;collapsible=0;dropTarget=0;pointerEvents=0;fillColor=none;top=0;left=0;bottom=0;right=0;points=[[0,0.5],[1,0.5]];portConstraint=eastwest;" parent="gnStx0gXveTgIEbWaK1a-2" vertex="1">
                    <mxGeometry y="170" width="800" height="86" as="geometry"/>
                </mxCell>
                <mxCell id="gnStx0gXveTgIEbWaK1a-8" value="02" style="shape=partialRectangle;html=1;whiteSpace=wrap;connectable=0;fillColor=none;top=0;left=0;bottom=0;right=0;overflow=hidden;pointerEvents=1;" parent="gnStx0gXveTgIEbWaK1a-7" vertex="1">
                    <mxGeometry width="200" height="86" as="geometry">
                        <mxRectangle width="200" height="86" as="alternateBounds"/>
                    </mxGeometry>
                </mxCell>
                <mxCell id="gnStx0gXveTgIEbWaK1a-9" value="04" style="shape=partialRectangle;html=1;whiteSpace=wrap;connectable=0;fillColor=none;top=0;left=0;bottom=0;right=0;overflow=hidden;pointerEvents=1;" parent="gnStx0gXveTgIEbWaK1a-7" vertex="1">
                    <mxGeometry x="200" width="200" height="86" as="geometry">
                        <mxRectangle width="200" height="86" as="alternateBounds"/>
                    </mxGeometry>
                </mxCell>
                <mxCell id="gnStx0gXveTgIEbWaK1a-10" value="02" style="shape=partialRectangle;html=1;whiteSpace=wrap;connectable=0;fillColor=none;top=0;left=0;bottom=0;right=0;overflow=hidden;pointerEvents=1;" parent="gnStx0gXveTgIEbWaK1a-7" vertex="1">
                    <mxGeometry x="400" width="200" height="86" as="geometry">
                        <mxRectangle width="200" height="86" as="alternateBounds"/>
                    </mxGeometry>
                </mxCell>
                <mxCell id="3bch37l-b7266UPYf4L3-1" value="Mars" style="shape=partialRectangle;html=1;whiteSpace=wrap;connectable=0;fillColor=none;top=0;left=0;bottom=0;right=0;overflow=hidden;pointerEvents=1;" parent="gnStx0gXveTgIEbWaK1a-7" vertex="1">
                    <mxGeometry x="600" width="200" height="86" as="geometry">
                        <mxRectangle width="200" height="86" as="alternateBounds"/>
                    </mxGeometry>
                </mxCell>
                <mxCell id="gnStx0gXveTgIEbWaK1a-11" value="" style="shape=partialRectangle;html=1;whiteSpace=wrap;collapsible=0;dropTarget=0;pointerEvents=0;fillColor=none;top=0;left=0;bottom=0;right=0;points=[[0,0.5],[1,0.5]];portConstraint=eastwest;" parent="gnStx0gXveTgIEbWaK1a-2" vertex="1">
                    <mxGeometry y="256" width="800" height="87" as="geometry"/>
                </mxCell>
                <mxCell id="gnStx0gXveTgIEbWaK1a-12" value="03" style="shape=partialRectangle;html=1;whiteSpace=wrap;connectable=0;fillColor=none;top=0;left=0;bottom=0;right=0;overflow=hidden;pointerEvents=1;" parent="gnStx0gXveTgIEbWaK1a-11" vertex="1">
                    <mxGeometry width="200" height="87" as="geometry">
                        <mxRectangle width="200" height="87" as="alternateBounds"/>
                    </mxGeometry>
                </mxCell>
                <mxCell id="gnStx0gXveTgIEbWaK1a-13" value="06" style="shape=partialRectangle;html=1;whiteSpace=wrap;connectable=0;fillColor=none;top=0;left=0;bottom=0;right=0;overflow=hidden;pointerEvents=1;" parent="gnStx0gXveTgIEbWaK1a-11" vertex="1">
                    <mxGeometry x="200" width="200" height="87" as="geometry">
                        <mxRectangle width="200" height="87" as="alternateBounds"/>
                    </mxGeometry>
                </mxCell>
                <mxCell id="gnStx0gXveTgIEbWaK1a-14" value="08" style="shape=partialRectangle;html=1;whiteSpace=wrap;connectable=0;fillColor=none;top=0;left=0;bottom=0;right=0;overflow=hidden;pointerEvents=1;" parent="gnStx0gXveTgIEbWaK1a-11" vertex="1">
                    <mxGeometry x="400" width="200" height="87" as="geometry">
                        <mxRectangle width="200" height="87" as="alternateBounds"/>
                    </mxGeometry>
                </mxCell>
                <mxCell id="3bch37l-b7266UPYf4L3-2" value="Saturn" style="shape=partialRectangle;html=1;whiteSpace=wrap;connectable=0;fillColor=none;top=0;left=0;bottom=0;right=0;overflow=hidden;pointerEvents=1;" parent="gnStx0gXveTgIEbWaK1a-11" vertex="1">
                    <mxGeometry x="600" width="200" height="87" as="geometry">
                        <mxRectangle width="200" height="87" as="alternateBounds"/>
                    </mxGeometry>
                </mxCell>
            </root>
        </mxGraphModel>
    </diagram>
</mxfile>